<svg width="2000" height="1000" viewBox="0 0 2000 1000" fill="none" xmlns="http://www.w3.org/2000/svg">
<g clip-path="url(#clip0)">
<path d="M1756.09 164.844C1755.47 165.625 1754.53 207.812 1753.91 258.437C1753.28 309.062 1752.5 351.406 1752.03 352.656C1751.56 353.75 1749.38 354.687 1747.03 354.687H1742.97L1743.44 375L1744.06 395.469L1737.81 401.25C1729.22 409.219 1725.94 416.25 1725.94 426.875C1725.78 434.219 1726.56 436.875 1730.63 442.5C1733.13 446.25 1738.28 450.781 1741.88 452.812C1747.81 456.094 1750.78 460.937 1746.88 460.937C1744.69 460.937 1745 465.156 1747.34 466.094C1748.91 466.719 1748.91 467.031 1747.34 467.031C1744.84 467.187 1744.69 471.406 1747.19 472.187C1748.59 472.656 1748.59 488.281 1747.19 540C1744.22 650.781 1740.47 756.719 1739.38 762.5L1738.44 767.969L1737.81 762.5C1737.5 759.531 1736.41 756.094 1735.47 754.844C1734.38 753.594 1733.59 750.156 1733.59 747.031C1733.59 742.5 1732.97 741.25 1730.16 740.937C1725.78 740.312 1721.41 746.25 1723.44 750.156C1725.78 754.375 1725.47 754.844 1719.53 754.375C1715.78 754.219 1713.28 752.969 1711.72 750.469C1710.31 748.437 1709.84 746.875 1710.63 746.875C1711.25 746.875 1712.66 744.844 1713.59 742.344C1714.84 738.75 1716.72 737.344 1721.56 736.094C1725 735.156 1728.28 733.125 1728.75 731.719C1730 728.437 1729.22 727.812 1723.91 727.5C1721.56 727.344 1718.59 726.719 1717.66 726.094C1716.56 725.469 1714.38 725.625 1712.81 726.406C1710.47 727.656 1709.22 727.187 1706.56 723.437C1704.69 720.937 1703.13 717.812 1703.13 716.562C1703.13 715.156 1698.59 709.531 1692.97 703.906C1685.16 696.094 1682.81 692.812 1682.81 689.219C1682.81 684.219 1680.94 682.187 1674.84 680.781C1672.66 680.156 1670 677.969 1669.06 675.781C1667.97 673.437 1665.94 671.875 1664.06 671.875C1662.19 671.875 1661.09 671.25 1661.72 670.469C1662.19 669.687 1661.88 668.594 1661.09 668.125C1660.31 667.5 1659.84 668.437 1660 669.844C1660.16 671.406 1661.88 673.281 1663.75 674.219C1665.63 675 1667.19 676.25 1667.19 676.875C1667.19 677.344 1668.28 678.906 1669.53 680.156C1670.78 681.562 1672.03 684.844 1672.19 687.812C1672.5 691.875 1672.03 693.125 1669.53 693.437C1667.81 693.75 1664.06 695.937 1661.09 698.281C1655.63 702.812 1655.63 702.812 1658.44 707.031C1660.16 709.531 1660.78 712.187 1660 713.75C1659.38 715.156 1658.59 718.125 1658.44 720.156C1658.13 722.187 1657.81 723.906 1657.5 724.062C1657.19 724.062 1654.69 725.469 1651.72 727.031C1647.5 729.219 1646.09 729.375 1645 727.812C1644.38 726.719 1644.06 725 1644.38 724.219C1644.69 723.281 1645.47 721.25 1646.09 719.531C1647.03 716.719 1647.03 716.562 1645 719.062C1643.59 720.781 1641.56 721.406 1639.38 720.781C1636.41 720 1636.09 720.469 1637.03 725.937C1637.81 730.937 1637.66 731.562 1635.47 730.781C1634.06 730.312 1632.5 730.469 1632.03 731.25C1631.41 732.187 1629.69 732.812 1627.97 732.812C1622.81 732.812 1624.69 736.094 1631.25 738.594C1635.47 740.312 1637.81 742.344 1638.44 744.844C1639.06 746.719 1640.31 748.437 1641.56 748.437C1643.91 748.437 1644.22 750 1642.97 753.437C1642.34 754.844 1640.47 755.469 1637.81 755C1634.84 754.687 1632.66 755.469 1630.63 757.656C1628.13 760.469 1625.78 760.937 1615.31 760.937H1603.13V751.094C1603.13 745.781 1603.91 738.75 1604.53 735.312C1606.41 727.344 1605.31 725 1599.69 725H1595.16L1595.47 706.875C1595.78 693.594 1595.31 688.437 1593.91 687.5C1592.66 686.719 1591.41 680.781 1590.78 671.719C1590 663.125 1588.44 655 1587.03 652.031C1584.69 647.5 1583.59 641.719 1582.19 624.219C1581.56 615.937 1578.75 615.469 1578.44 623.75C1578.28 627.5 1577.81 632.187 1577.34 634.375C1576.88 636.562 1576.25 640.625 1575.78 643.437C1575.47 646.406 1574.22 650.156 1572.97 652.031C1571.56 654.219 1570.47 661.094 1570 670.625C1569.53 684.219 1569.06 686.094 1565.63 689.062C1562.81 691.562 1562.34 692.656 1563.75 694.062C1565 695.312 1565.63 701.406 1565.63 710.469V725H1561.56C1557.03 725 1551.09 729.844 1554.38 730.937C1555.31 731.25 1556.25 732.812 1556.25 734.531C1556.25 737.344 1554.84 737.5 1528.91 737.5H1501.56V728.75C1501.56 722.187 1500.94 719.375 1498.91 717.969C1496.41 716.094 1496.09 712.031 1495.78 678.281C1495.63 657.5 1496.09 638.594 1496.72 636.25C1499.06 627.031 1494.22 621.25 1487.5 625.312C1483.28 627.969 1480 623.75 1478.75 614.219C1478.13 609.844 1477.19 606.25 1476.56 606.25C1475.94 606.25 1475 609.844 1474.69 614.219C1473.75 623.906 1470.16 628.281 1465.63 625.312C1463.44 623.906 1461.56 623.906 1459.53 624.844C1457.03 626.25 1456.88 628.594 1457.5 654.375C1458.44 690.781 1456.72 718.75 1453.75 718.75C1452.19 718.75 1451.56 720.156 1451.88 722.969L1452.34 727.344L1435.47 727.812L1418.59 728.281L1418.91 719.219C1419.22 711.562 1418.44 708.906 1414.53 702.344C1409.84 694.687 1409.53 693.594 1404.53 643.125C1401.72 614.531 1398.91 593.125 1398.28 594.687C1397.66 596.406 1394.53 618.75 1391.41 644.531C1386.25 685.937 1384.38 698.125 1384.38 690.469C1384.38 689.219 1381.88 667.656 1378.91 642.5C1375.94 617.187 1373.44 594.219 1373.44 591.25C1373.44 588.281 1372.66 585.937 1371.72 585.937C1370.78 585.937 1370.47 587.031 1370.94 588.437C1371.41 589.844 1369.06 614.531 1365.63 643.281C1359.84 691.562 1359.06 695.937 1355.16 702.031C1351.41 707.812 1351.09 709.844 1351.41 720.625C1351.72 729.219 1351.25 732.812 1350 732.812C1348.91 732.812 1348.44 731.719 1349.06 730.469C1349.53 729.062 1349.06 728.125 1347.66 728.125C1345.31 728.125 1344.69 733.437 1345.31 750.312L1345.47 757.5H1319.06L1292.5 757.344L1291.56 751.094C1290.78 746.719 1291.09 744.375 1292.5 743.437C1294.06 742.5 1294.06 742.187 1292.34 742.187C1290.94 742.187 1290.47 740.312 1290.94 735.156C1291.25 730.312 1290.78 728.125 1289.53 728.125C1288.44 728.125 1287.5 729.375 1287.34 730.781C1287.34 732.344 1287.03 735.312 1287.03 737.5C1286.88 740 1283.91 744.062 1278.75 748.75C1272.34 754.844 1269.69 756.25 1265.16 756.25C1262.19 756.25 1259.38 757.187 1258.91 758.125C1258.59 759.219 1257.81 756.094 1257.19 751.094C1256.56 746.25 1255.31 742.187 1254.53 742.187C1253.75 742.187 1253.13 742.812 1253.13 743.594C1253.13 744.375 1249.22 745 1244.53 745.156C1239.84 745.156 1235.94 744.531 1235.94 743.75C1235.94 742.812 1235.31 742.187 1234.38 742.187C1233.59 742.187 1232.81 743.281 1232.81 744.531C1232.81 747.344 1228.75 747.656 1227.5 744.844C1226.88 743.437 1226.41 743.437 1225.78 744.687C1225.16 746.094 1223.13 745.937 1218.59 744.062C1213.28 742.031 1212.5 741.094 1213.13 738.125C1213.75 736.094 1213.28 734.062 1212.34 733.594C1209.84 732.031 1210.94 694.062 1213.59 691.875C1216.25 689.687 1216.09 687.812 1213.28 684.844C1212.03 683.594 1211.25 681.875 1211.72 681.094C1212.34 680.312 1211.56 679.687 1210.31 679.687C1209.06 679.687 1207.34 680.625 1206.72 681.875C1205.63 683.906 1202.5 683.594 1185.94 680.156C1175.16 677.969 1166.09 675.937 1165.78 675.625C1165.47 675.312 1165.16 673.437 1165 671.562C1164.84 666.406 1157.34 666.406 1157.03 671.406C1156.88 673.437 1156.41 675.312 1156.09 675.625C1155.78 675.937 1146.88 677.969 1136.41 680.156C1120.31 683.281 1116.88 683.594 1115.47 681.875C1112.97 678.75 1110.94 679.219 1110.94 682.812C1110.94 684.531 1109.84 685.937 1108.59 685.937C1105.63 685.937 1105.63 687.5 1108.44 691.406C1110.78 695 1112.03 732.031 1109.69 733.437C1108.91 733.906 1108.59 735.937 1108.91 737.969C1109.53 740.937 1108.75 742.031 1104.84 743.75C1102.19 744.844 1099.06 745.312 1097.81 744.844C1096.72 744.375 1094.84 744.844 1093.91 745.781C1092.34 747.187 1091.41 746.875 1089.53 744.531C1087.81 742.344 1086.88 742.031 1086.41 743.281C1085.94 744.375 1084.69 745.312 1083.44 745.312C1082.03 745.312 1081.41 744.687 1081.88 744.062C1082.34 743.281 1081.72 738.75 1080.63 733.906C1079.53 729.062 1078.75 722.812 1079.06 720C1080.63 703.125 1078.91 694.375 1073.13 690.156C1069.22 687.187 1068.75 687.187 1065 689.687C1062.81 691.094 1060.63 694.219 1060 696.562C1059.53 698.906 1058.59 702.187 1057.97 703.75C1057.34 705.469 1057.34 710.625 1058.13 715.156C1059.84 725.937 1057.34 735.937 1053.28 735.937C1049.22 735.937 1047.97 727.969 1049.38 709.062C1050.31 694.375 1050.16 693.437 1047.03 690.469C1044.06 687.656 1043.75 686.25 1044.53 679.062C1046.56 662.969 1038.59 648.125 1024.22 641.094C1020 638.906 1015.31 636.719 1014.06 636.094C1012.81 635.312 1011.41 633.281 1011.25 631.25C1010.63 627.812 1010.63 627.969 1007.81 632.344C1006.25 635 1002.97 637.5 1000.63 638.125C995.313 639.531 985.625 646.406 981.406 651.719C975.938 658.75 972.813 671.25 974.531 679.062C975.938 685.312 975.781 686.25 972.188 689.844C968.438 693.594 968.438 694.062 969.531 708.594C970.938 726.875 969.531 735.937 965.625 735.937C961.719 735.937 960.781 732.5 960.938 717.969C960.938 711.094 960.313 702.656 959.531 699.219C958.125 693.437 953.125 687.5 949.688 687.5C946.875 687.5 940.625 695.156 940.625 698.75C940.625 700.781 940 703.281 939.219 704.375C938.594 705.469 938.594 710.312 939.375 715C940.313 720.781 940.156 725.781 938.906 730.156C937.969 733.75 937.188 743.906 937.344 752.656L937.656 768.75H931.25H924.844L925.156 737.344C925.313 707.656 925.469 705.781 928.594 702.656L931.875 699.375L928.125 698.437C924.844 697.656 924.219 696.562 924.375 691.719L924.531 685.937H899.063C883.75 685.937 873.281 685.312 872.656 684.375C872.188 683.437 870 682.812 867.813 682.812C864.063 682.812 862.813 680 865.469 677.187C867.656 675 869.219 665.625 867.344 665.625C866.563 665.625 865.313 667.031 864.844 668.75C864.375 670.469 863.125 671.875 862.344 671.875C861.563 671.875 860.938 674.531 860.938 677.656C860.938 685.312 858.906 682.812 858.438 674.531C858.125 667.656 854.375 658.594 852.656 660.469C852.031 660.937 851.563 660.625 851.563 659.687C851.563 658.75 850.469 658.281 849.063 658.906C847.344 659.531 846.875 661.094 847.5 664.219C847.969 666.719 847.656 669.062 846.875 669.531C845.938 670 845.313 669.219 845.156 667.656C845.156 666.094 844.375 667.187 843.438 670.156C842.656 673.125 842.344 676.875 842.656 678.437C843.125 680 842.813 681.719 842.031 682.187C841.25 682.656 840.625 680.469 840.625 677.5C840.625 674.375 840 671.875 839.219 671.875C838.438 671.875 837.188 670.469 836.719 668.75C835 663.281 833.281 665.312 833.438 672.656C833.594 676.562 833.906 678.906 834.063 678.125C835 675.312 837.5 676.406 837.5 679.687C837.5 682.031 836.406 682.812 832.969 682.812C830.313 682.812 827.813 683.594 827.344 684.375C826.719 685.312 816.25 685.937 801.094 685.937H775.781V691.719C775.781 696.406 775.156 697.656 772.188 698.281L768.438 699.219L772.5 702.969C776.563 706.719 778.125 714.062 775 714.062C773.906 714.062 773.906 715 775 717.031C775.938 718.75 776.563 730.625 776.563 744.375V768.75H768.906H761.406L760.313 754.219C759.688 746.25 759.375 732.812 759.375 724.219C759.531 715.625 759.219 707.344 758.594 705.781C757.813 703.906 758.281 703.125 760 703.125C762.656 703.125 763.438 700.625 760.938 699.687C759.375 699.219 758.125 694.219 757.969 687.812C757.813 682.031 754.688 683.906 754.688 689.844C754.688 692.812 753.906 695.312 753.125 695.312C752.188 695.312 751.406 692.969 751.406 690.156C751.406 687.5 751.094 681.406 750.625 676.875C750 671.562 750.313 667.812 751.563 666.406C753.125 664.531 752.969 664.062 750.938 664.062C749.531 664.062 748.438 662.969 748.438 661.719C748.438 659.375 747.5 659.062 736.25 659.062L729.688 658.906V649.687V640.625L736.406 641.562C740 642.031 743.75 642.656 744.844 642.969C746.406 643.437 749.375 636.25 748.125 635.156C747.813 635 743.438 632.5 738.281 629.844L728.906 624.844L728.125 641.875L727.344 658.75L720.625 658.906C713.75 659.062 705.938 664.219 709.375 666.406C711.563 667.812 711.25 678.437 709.063 685.937C707.188 691.719 706.719 692.187 701.094 692.187C696.406 692.187 694.844 691.406 693.75 688.75L692.344 685.156V688.594C692.188 691.719 691.406 692.187 685.938 692.187C680.781 692.187 679.375 691.562 678.125 688.594L676.719 685.156V688.594C676.563 691.719 675.781 692.187 670.313 692.187C665.156 692.187 663.75 691.562 662.5 688.594L661.094 685.156V688.594C660.938 691.719 660.156 692.187 654.688 692.187C649.531 692.187 648.125 691.562 646.875 688.594L645.469 685.156V688.594C645.313 691.719 644.531 692.187 639.219 692.187C634.063 692.187 632.969 691.562 632.188 688.281C631.563 686.094 631.563 683.594 632.031 682.812C632.656 681.875 632.344 681.25 631.563 681.25C630.156 681.25 627.656 671.406 627.344 664.844C627.344 663.125 626.719 660 625.938 657.969C624.219 652.812 621.875 655.781 620.625 664.844C619.375 673.75 617.344 674.687 614.844 667.344C612.188 659.375 604.063 650.781 594.219 645.469C583.281 639.531 579.688 639.375 568.906 644.844C558.125 650.469 551.875 656.562 547.656 666.25C544.375 673.75 544.063 673.906 542.344 670.625C541.25 668.594 540.625 665.937 540.781 664.375C540.938 662.969 540.313 660 539.531 657.812L537.813 653.906L536.094 658.281C535.156 660.781 534.375 664.219 534.375 666.094C534.375 667.969 533.594 672.031 532.656 675C530.781 680.781 530 685 529.844 689.375C529.688 693.125 517.188 693.437 517.188 689.844C517.188 688.594 516.563 687.5 515.625 687.5C514.844 687.5 514.063 688.594 514.063 689.844C514.063 691.562 512.344 692.187 507.813 692.187C503.281 692.187 501.563 691.562 501.563 689.844C501.563 688.594 500.938 687.5 500 687.5C499.219 687.5 498.438 688.594 498.438 689.844C498.438 691.562 496.719 692.187 492.188 692.187C487.656 692.187 485.938 691.562 485.938 689.844C485.938 688.594 485.313 687.5 484.375 687.5C483.594 687.5 482.813 688.594 482.813 689.844C482.813 691.562 481.094 692.187 476.563 692.187C472.031 692.187 470.313 691.562 470.313 689.844C470.313 688.594 469.688 687.5 468.75 687.5C467.969 687.5 467.188 688.594 467.188 689.844C467.188 691.562 465.469 692.187 461.25 692.187C455.625 692.187 455 691.719 453.125 686.094C452.031 682.656 451.406 676.406 451.875 672.187C452.813 661.875 450.625 659.062 441.563 658.906H434.375V649.531V640.156L440.313 641.094C443.438 641.562 447.188 642.344 448.594 642.969C450.625 643.75 451.406 642.812 451.875 639.375C452.5 635 451.875 634.375 442.656 629.844L432.813 625V642.031V659.062H424.375C415.156 658.906 408.438 663.125 411.094 667.344C412.969 670.469 412.813 682.5 410.781 683.594C409.844 684.219 409.688 686.562 410.156 689.062C410.625 691.562 410.469 693.906 409.531 694.531C408.438 695.156 407.813 693.75 407.813 690.781C407.813 682.812 404.844 683.75 403.75 692.187C402.969 697.812 402.031 700 400.156 700C397.813 700.156 397.813 700.312 400.156 702.031C402.344 703.594 402.813 707.656 402.969 726.562C402.969 739.062 402.5 751.719 401.719 754.687C400.625 758.906 400.313 756.094 400.156 742.5L400 725H389.531C370.313 724.844 357.188 717.344 340.469 697.187C334.219 689.687 328.594 682.969 327.969 682.187C327.188 681.406 323.906 683.281 320.313 686.562C304.688 700.625 286.719 709.062 269.531 710.156C260.938 710.781 258.281 711.719 247.656 718.594C234.688 727.187 227.813 729.687 217.656 729.687H211.094L211.563 748.75C211.875 759.375 211.875 764.375 211.406 759.844C211.094 755.469 209.844 750.937 208.594 750C205.938 747.812 205.469 738.125 207.813 732.187C209.219 728.281 209.063 728.125 202.656 728.125H196.094L194.063 719.844C192.813 714.531 192.188 698.437 192.188 675C192.188 654.844 191.563 635.781 190.625 632.812C189.688 629.375 189.688 627.187 190.625 626.562C191.563 625.937 191.563 623.75 190.781 620.937C189.375 615.781 190.156 612.5 193.438 610C195.469 608.594 195 608.125 190.938 607.5C188.125 607.031 185.938 607.5 185.938 608.437C185.938 609.375 185.156 609.219 184.063 608.125C182.188 606.25 176.563 605.469 176.563 607.031C176.563 607.5 178.281 609.531 180.469 611.406C184.063 614.531 184.219 615.469 182.813 620.312C182.031 623.281 181.875 626.25 182.656 627.031C184.063 628.437 182.969 635.937 181.25 635.937C180.625 635.937 180 654.062 179.844 676.094C179.688 698.125 178.906 717.344 177.969 718.906C177.188 720.469 176.563 723.125 176.563 724.844C176.563 727.656 175.625 728.125 170.625 728.125H164.688L165.313 734.844L165.781 741.406L161.25 733.594C143.594 703.437 113.594 699.531 69.5313 721.406C63.5938 724.531 54.6875 729.219 49.8438 732.187C45 735.156 40.625 737.5 40.1563 737.5C39.8438 737.5 38.9063 732.187 38.2813 725.625L37.1875 713.594L44.0625 707.344L50.7813 700.937L44.375 699.687L37.8125 698.281L36.875 687.031C35.625 671.25 33.5938 589.375 33.5938 554.219C33.5938 533.437 33.125 525 31.875 525C29.0625 525 27.8125 519.375 26.5625 502.344L25.4688 486.719L25.3125 500.937C25 516.25 22.8125 525 19.375 525C16.875 525 16.25 535.156 18.75 536.719C19.6875 537.187 20 539.219 19.5313 541.094C19.2188 542.969 18.125 577.5 17.1875 617.969C16.0938 658.281 15.1563 692.812 15 694.531C14.6875 696.875 12.6563 698.125 7.8125 699.375L0.9375 700.937L7.8125 707.344L14.5313 713.75L11.875 737.031C10.3125 749.687 8.4375 761.094 7.5 762.031C6.5625 763.125 4.53125 764.062 2.96875 764.062C0.15625 764.062 0 765.937 0 799.219V834.375H1000H2000V771.875C2000 734.531 1999.38 709.375 1998.59 709.375C1997.81 709.375 1994.84 705.469 1992.19 700.781C1989.06 695.156 1986.25 692.187 1984.38 692.187C1982.81 692.187 1981.09 691.562 1980.63 690.781C1980.16 690.156 1977.34 690.312 1974.53 691.094C1970.47 692.344 1968.13 694.687 1964.69 701.094C1962.34 705.625 1959.69 709.375 1959.06 709.375C1958.44 709.375 1957.81 713.906 1957.81 719.531V729.687H1951.88C1945.78 729.687 1945.78 729.687 1943.91 721.25C1940.47 705.937 1927.97 689.844 1913.91 682.656C1909.84 680.625 1908.13 678.906 1908.75 677.344C1909.53 675.312 1906.41 675 1885.47 675C1862.5 675 1861.25 675.156 1862.03 677.969C1862.5 680.156 1861.56 681.25 1858.28 682.344C1850.78 685 1837.03 698.906 1832.19 708.75C1829.84 713.594 1827.19 722.344 1826.25 727.969L1824.69 738.281L1812.34 737.812L1800 737.187L1800.47 730.781C1800.78 725.156 1801.25 724.219 1803.91 724.687C1806.72 725.156 1806.72 725 1803.44 722.656C1800.63 720.625 1800.16 719.531 1801.72 717.812C1803.13 716.094 1802.97 715.469 1801.09 714.687C1797.19 713.281 1794.84 715.469 1797.19 718.281C1798.75 720.156 1798.59 721.094 1796.09 722.812C1793.44 724.687 1793.44 725 1795.78 725C1798.91 725 1799.38 729.062 1796.56 730.156C1795 730.781 1795 731.094 1796.56 731.094C1797.5 731.25 1798.44 732.656 1798.44 734.375C1798.44 737.187 1797.34 737.5 1786.72 737.5H1775V749.219V760.781L1784.84 761.25C1793.59 761.719 1794.53 762.031 1795 765.156C1795.47 768.594 1795 768.75 1784.69 768.75H1773.75L1772.81 757.344C1772.34 751.25 1771.56 732.031 1771.09 714.844C1770.63 697.656 1769.53 667.031 1768.75 646.875C1765.31 561.25 1763.75 472.812 1765.47 472.187C1767.81 471.406 1767.66 467.656 1765.31 466.719C1763.75 466.094 1763.75 465.781 1765.31 465.781C1767.5 465.625 1767.97 460.937 1765.63 460.937C1761.72 460.937 1764.69 455.937 1770.31 453.125C1773.75 451.406 1778.59 447.031 1781.09 443.594C1790.63 430.469 1788.91 415.469 1776.09 402.656L1768.44 395L1769.06 374.844L1769.53 354.687H1765.31C1761.72 354.687 1760.94 353.906 1760.31 349.531C1759.84 346.875 1758.91 303.75 1758.28 253.906C1757.5 204.062 1756.56 163.906 1756.09 164.844ZM29.0625 541.25C30.3125 542.5 31.25 544.531 31.25 545.625C31.0938 547.031 30.4688 546.719 29.0625 544.844C26.5625 541.562 23.4375 541.406 23.4375 544.531C23.4375 545.781 24.375 546.875 25.625 546.875C29.0625 546.875 30 549.531 28.125 553.281C26.4063 556.406 26.25 556.406 24.2188 553.594C22.6563 551.25 22.1875 545.312 23.125 540.156C23.5938 538.281 26.5625 538.906 29.0625 541.25ZM23.4375 556.25C23.4375 557.031 23.125 557.812 22.8125 557.812C22.3438 557.812 21.5625 557.031 21.0938 556.25C20.625 555.312 20.9375 554.687 21.7188 554.687C22.6563 554.687 23.4375 555.312 23.4375 556.25ZM31.25 556.25C31.25 557.031 30.625 557.812 29.6875 557.812C28.9063 557.812 28.125 557.031 28.125 556.25C28.125 555.312 28.9063 554.687 29.6875 554.687C30.625 554.687 31.25 555.312 31.25 556.25ZM23.4375 560C23.4375 560.469 22.8125 561.25 21.875 561.719C21.0938 562.187 20.3125 561.875 20.3125 561.094C20.3125 560.156 21.0938 559.375 21.875 559.375C22.8125 559.375 23.4375 559.687 23.4375 560ZM31.25 560.937C31.25 561.719 30.9375 562.5 30.625 562.5C30.1563 562.5 29.375 561.719 28.9063 560.937C28.4375 560 28.75 559.375 29.5313 559.375C30.4688 559.375 31.25 560 31.25 560.937ZM28.5938 570.625C26.25 573.125 25.7813 573.281 23.5938 571.25C21.7188 569.219 21.7188 568.125 23.2813 564.531L25.3125 560.156L28.2813 563.906C31.0938 567.5 31.25 567.812 28.5938 570.625ZM23.4375 573.437C23.4375 574.219 22.8125 575 21.875 575C21.0938 575 20.3125 574.219 20.3125 573.437C20.3125 572.5 21.0938 571.875 21.875 571.875C22.8125 571.875 23.4375 572.5 23.4375 573.437ZM31.25 573.437C31.25 574.219 30.4688 575 29.5313 575C28.75 575 28.4375 574.219 28.9063 573.437C29.375 572.5 30.1563 571.875 30.625 571.875C30.9375 571.875 31.25 572.5 31.25 573.437ZM23.4375 577.187C23.4375 577.656 22.8125 578.437 21.875 578.906C21.0938 579.375 20.3125 579.062 20.3125 578.281C20.3125 577.344 21.0938 576.562 21.875 576.562C22.8125 576.562 23.4375 576.875 23.4375 577.187ZM31.25 578.125C31.25 578.906 30.9375 579.687 30.625 579.687C30.1563 579.687 29.375 578.906 28.9063 578.125C28.4375 577.187 28.75 576.562 29.5313 576.562C30.4688 576.562 31.25 577.187 31.25 578.125ZM28.9063 587.5C26.5625 590 25.625 590.312 23.75 588.594C21.7188 587.031 21.4063 587.187 22.3438 589.375C22.8125 590.937 22.6563 592.187 21.875 592.187C19.5313 592.187 20.625 583.906 23.2813 580.781C25.4688 578.125 25.7813 578.125 28.75 581.094C31.7188 584.219 31.7188 584.375 28.9063 587.5ZM31.25 590.625C31.25 591.406 30.4688 592.187 29.5313 592.187C28.75 592.187 28.4375 591.406 28.9063 590.625C29.375 589.687 30.1563 589.062 30.625 589.062C30.9375 589.062 31.25 589.687 31.25 590.625ZM23.4375 594.375C23.4375 594.844 22.8125 595.625 21.875 596.094C21.0938 596.562 20.3125 596.25 20.3125 595.469C20.3125 594.531 21.0938 593.75 21.875 593.75C22.8125 593.75 23.4375 594.062 23.4375 594.375ZM32.8125 595.469C32.8125 596.406 31.7188 596.875 30.4688 596.25C27.6563 595.312 27.3438 597.031 29.8438 599.531C31.0938 600.781 30.7813 602.344 28.9063 605.312L26.25 609.375L22.9688 605.312L19.6875 601.094L24.0625 597.5C28.5938 593.594 32.8125 592.656 32.8125 595.469ZM32.1875 608.906C30.625 610.469 29.2188 608.125 30.625 606.094C31.5625 604.375 31.875 604.375 32.5 606.094C32.8125 607.187 32.6563 608.437 32.1875 608.906ZM22.6563 607.812C23.125 608.594 22.9688 609.375 22.0313 609.375C21.25 609.375 20 608.594 19.5313 607.812C19.0625 606.875 19.2188 606.25 20.1563 606.25C20.9375 606.25 22.1875 606.875 22.6563 607.812ZM23.4375 613.125C23.4375 613.437 22.3438 614.531 21.0938 615.625C19.2188 617.187 18.75 617.187 18.75 615C18.75 613.594 19.8438 612.5 21.0938 612.5C22.3438 612.5 23.4375 612.812 23.4375 613.125ZM32.8125 615C32.8125 617.187 32.3438 617.187 30.4688 615.625C27.6563 613.281 27.3438 615.781 30 618.437C30.9375 619.375 32.0313 622.656 32.3438 625.781C32.9688 632.5 29.8438 633.125 24.2188 627.344C19.6875 622.812 19.375 621.25 22.9688 616.562C26.0938 612.344 32.8125 611.406 32.8125 615ZM21.875 628.125C23.2813 630.625 23.125 631.25 21.0938 631.25C19.8438 631.25 18.75 629.844 18.75 628.125C18.75 626.406 19.0625 625 19.5313 625C19.8438 625 20.9375 626.406 21.875 628.125ZM23.4375 634.531C23.4375 635.156 22.8125 636.25 21.875 636.719C21.0938 637.187 20.3125 638.594 20.3125 639.531C20.4688 640.625 21.7188 639.844 23.2813 637.969L26.0938 634.531L29.5313 639.062C33.5938 644.687 33.5938 645 29.2188 650.625L25.625 655L22.6563 650.625C18.75 644.844 17.8125 633.281 21.0938 633.281C22.3438 633.281 23.4375 633.906 23.4375 634.531ZM32.8125 636.25C32.8125 638.75 32.3438 639.219 31.0938 637.969C30.1563 637.031 29.8438 635.469 30.3125 634.531C32.0313 631.875 32.8125 632.5 32.8125 636.25ZM23.4375 655C23.4375 655.781 22.3438 656.25 21.0938 656.25C19.5313 656.25 18.75 654.687 18.75 652.031C18.75 647.969 18.9063 647.969 21.0938 650.937C22.3438 652.5 23.4375 654.375 23.4375 655ZM33.75 651.875C33.5938 653.906 32.0313 655.781 30.4688 655.937C27.8125 656.562 28.125 655.156 31.7188 650.312C33.9063 647.5 34.375 647.969 33.75 651.875ZM20.9375 661.719C17.9688 666.25 16.4063 665.937 17.9688 661.094C18.4375 659.219 20 657.812 21.25 657.812C23.125 657.812 23.125 658.437 20.9375 661.719ZM34.375 661.719C34.375 663.906 34.0625 665.625 33.75 665.625C33.4375 665.625 32.0313 663.906 30.625 661.719C28.125 657.969 28.125 657.812 31.25 657.812C33.5938 657.812 34.375 658.906 34.375 661.719ZM34.0625 675.625C34.5313 682.031 34.2188 682.812 31.0938 682.812C27.9688 682.812 27.8125 682.656 30.3125 678.906C34.0625 673.125 33.2813 672.031 29.2188 677.187L25.4688 681.719L22.1875 676.25C17.9688 669.531 17.9688 669.531 22.1875 663.594L25.625 658.906L29.5313 663.75C32.3438 667.031 33.75 670.781 34.0625 675.625ZM1583.44 665C1583.91 666.406 1584.53 670 1584.69 673.125C1584.84 678.281 1585 678.125 1585.94 671.094L1587.03 663.281L1587.19 671.875C1587.5 679.531 1587.19 680.625 1584.38 680.781C1581.72 681.094 1581.25 680 1580.94 673.75L1580.63 666.406L1580.16 673.75C1579.38 683.125 1576.56 683.594 1576.56 674.375C1576.56 666.094 1577.81 662.5 1580.47 662.5C1581.56 662.5 1582.97 663.594 1583.44 665ZM1574.53 676.875C1574.22 679.687 1573.91 677.812 1573.91 672.656C1573.91 667.5 1574.22 665.156 1574.53 667.5C1574.84 669.844 1574.84 674.062 1574.53 676.875ZM21.0938 678.125C23.4375 682.656 23.4375 682.812 20.3125 682.812C17.8125 682.812 17.1875 681.719 17.1875 678.125C17.1875 675.469 17.5 673.437 17.9688 673.437C18.2813 673.437 19.6875 675.469 21.0938 678.125ZM855 680.937C856.25 682.187 855.313 682.5 851.094 682.344C847.813 682.187 845.313 681.562 845.313 681.094C845.313 677.812 851.719 677.656 855 680.937ZM23.4375 685.156C23.4375 685.625 22.3438 687.812 20.9375 690C19.5313 692.031 18.75 694.219 19.0625 694.687C19.5313 695.156 21.25 693.281 22.9688 690.625L26.0938 685.625L29.375 690.937L32.6563 696.094L27.1875 696.562C18.9063 697.344 17.1875 696.094 17.1875 689.844C17.1875 685.469 17.8125 684.375 20.3125 684.375C22.0313 684.375 23.4375 684.687 23.4375 685.156ZM34.375 689.375V694.531L31.25 690.625C27.3438 685.625 27.3438 684.375 31.25 684.375C33.75 684.375 34.375 685.469 34.375 689.375ZM1668.75 709.219C1668.75 712.812 1668.59 712.969 1665.63 710.156C1662.03 706.875 1661.56 703.75 1664.53 702.656C1667.03 701.875 1668.75 704.531 1668.75 709.219ZM1687.5 707.812C1687.5 708.594 1686.88 709.375 1685.94 709.375C1685.16 709.375 1684.38 708.594 1684.38 707.812C1684.38 706.875 1685.16 706.25 1685.94 706.25C1686.88 706.25 1687.5 706.875 1687.5 707.812ZM800 741.406V768.75H792.969H785.938V741.406V714.062H792.969H800V741.406ZM826.563 741.406V768.75H817.969H809.375V742.5C809.375 727.969 809.844 715.625 810.469 715.156C810.938 714.531 814.844 714.062 819.063 714.062H826.563V741.406ZM863.75 741.719L864.063 768.75H850H835.938V742.5C835.938 727.969 836.406 715.625 837.031 715C837.656 714.375 843.75 714.219 850.781 714.375L863.281 714.844L863.75 741.719ZM890.625 741.406V768.75H882.031H873.438V741.406V714.062H882.031H890.625V741.406ZM915.313 741.719L915.625 768.75H907.813H900V742.5C900 727.969 900.469 715.625 901.094 715C901.719 714.375 905 714.062 908.594 714.375L914.844 714.844L915.313 741.719ZM1699.53 717.187C1702.03 721.094 1700.63 724.844 1697.03 723.906C1695 723.437 1694.38 722.187 1694.84 720.156C1695.31 718.594 1694.84 717.187 1693.91 717.187C1692.97 717.187 1692.19 716.406 1692.19 715.625C1692.19 712.812 1697.66 713.906 1699.53 717.187ZM32.8125 719.375C32.8125 720.469 26.25 731.25 25.625 731.25C25.3125 731.25 23.5938 728.437 21.875 725L18.75 718.75H25.7813C29.6875 718.75 32.8125 719.062 32.8125 719.375ZM20.625 728.125C23.2813 732.812 23.2813 732.812 19.5313 732.812C16.25 732.812 15.625 732.031 15.625 728.125C15.625 722.187 17.1875 722.187 20.625 728.125ZM35.9375 728.125C35.9375 732.031 35.3125 732.812 32.0313 732.812C28.2813 732.812 28.2813 732.812 30.9375 728.125C34.375 722.187 35.9375 722.187 35.9375 728.125ZM169.844 744.844C169.531 747.344 169.219 745.625 169.219 741.406C169.219 737.031 169.531 735.156 169.844 737.031C170.156 739.062 170.156 742.5 169.844 744.844ZM175 741.406C175 745.312 174.375 748.437 173.438 748.437C172.656 748.437 171.875 745.312 171.875 741.406C171.875 737.5 172.656 734.375 173.438 734.375C174.375 734.375 175 737.5 175 741.406ZM201.563 741.406C201.563 745.312 200.938 748.437 200 748.437C199.219 748.437 198.438 745.312 198.438 741.406C198.438 737.5 199.219 734.375 200 734.375C200.938 734.375 201.563 737.5 201.563 741.406ZM204.219 744.844C203.906 747.344 203.594 745.625 203.594 741.406C203.594 737.031 203.906 735.156 204.219 737.031C204.531 739.062 204.531 742.5 204.219 744.844ZM1350.94 738.281C1350.78 743.437 1348.44 743.437 1348.44 738.281C1348.44 736.094 1349.06 734.375 1349.84 734.375C1350.63 734.375 1351.09 736.094 1350.94 738.281ZM19.375 743.281C13.9063 752.812 11.7188 755.156 13.125 750C13.5938 747.812 14.0625 743.75 14.0625 740.937C14.0625 736.406 14.5313 735.937 18.75 735.937H23.5938L19.375 743.281ZM37.1875 738.594C36.4063 742.5 32.3438 742.812 30 739.062C28.2813 736.25 28.4375 735.937 32.9688 735.937C36.7188 735.937 37.6563 736.562 37.1875 738.594ZM24.0625 749.531C20.7813 752.344 17.5 754.687 16.875 754.687C16.25 754.687 17.9688 750.781 20.625 746.094C25.4688 737.812 25.625 737.656 27.9688 740.937C30.1563 744.062 29.8438 744.531 24.0625 749.531ZM1711.41 740.625C1710.47 744.219 1705.94 744.687 1703.28 741.562C1701.72 739.687 1702.03 739.219 1705 738.594C1711.72 737.344 1712.19 737.5 1711.41 740.625ZM1695.31 740.625C1695.31 741.406 1695 742.187 1694.69 742.187C1694.22 742.187 1693.44 741.406 1692.97 740.625C1692.5 739.687 1692.81 739.062 1693.59 739.062C1694.53 739.062 1695.31 739.687 1695.31 740.625ZM1644.38 743.906C1643.44 745.625 1640.63 744.219 1640.63 742.187C1640.63 741.406 1641.72 741.094 1642.97 741.562C1644.22 742.187 1644.84 743.125 1644.38 743.906ZM1829.53 757.5C1832.03 762.187 1831.88 762.5 1825 762.5C1819.84 762.5 1818.75 762.969 1818.75 765.625C1818.75 768.281 1817.66 768.75 1810.78 768.75C1803.44 768.75 1802.97 768.437 1803.44 765.156C1803.91 762.031 1804.84 761.719 1814.69 761.25L1825.31 760.781L1824.38 754.531C1823.91 751.25 1823.91 746.406 1824.53 744.062C1825.47 740.156 1825.78 740.469 1826.72 747.031C1827.34 751.094 1828.59 755.781 1829.53 757.5ZM1287.5 750C1287.5 755 1285.31 756.25 1283.75 752.187C1282.97 750 1285 745.312 1286.88 745.312C1287.19 745.312 1287.5 747.344 1287.5 750ZM1351.25 750C1351.09 752.5 1350.31 754.687 1349.69 754.687C1349.06 754.687 1348.44 752.5 1348.44 750C1348.44 747.344 1349.22 745.312 1350 745.312C1350.94 745.312 1351.41 747.344 1351.25 750ZM48.9063 747.969C49.375 748.75 50.1563 752.656 50.7813 756.719L52.0313 764.375L47.5 763.75C43.4375 763.281 42.9688 762.656 42.5 756.406C42.1875 752.031 42.6563 749.062 44.0625 748.281C46.5625 746.562 48.125 746.562 48.9063 747.969ZM1698.44 750.937C1698.44 752.187 1697.81 753.125 1696.88 753.125C1696.09 753.125 1695.31 751.719 1695.31 749.844C1695.31 748.125 1696.09 747.187 1696.88 747.656C1697.81 748.125 1698.44 749.687 1698.44 750.937ZM1656.41 754.219C1655.31 758.437 1651.56 761.094 1651.56 757.656C1651.56 755.937 1655.94 750 1657.19 750C1657.34 750 1657.03 751.875 1656.41 754.219ZM36.5625 755.625C37.9688 759.375 37.9688 759.375 30.9375 759.375H24.2188L28.9063 756.25C34.5313 752.5 35.3125 752.5 36.5625 755.625ZM1704.69 757.812C1704.69 758.594 1703.59 759.375 1702.34 759.375C1701.09 759.375 1700 758.594 1700 757.812C1700 756.875 1701.09 756.25 1702.34 756.25C1703.59 756.25 1704.69 756.875 1704.69 757.812ZM1340.63 764.844V768.75H1318.75H1296.88V764.844V760.937H1318.75H1340.63V764.844ZM34.8438 763.594C32.0313 763.906 27.3438 763.906 24.6875 763.594C21.875 763.281 24.0625 762.969 29.6875 762.969C35.3125 762.969 37.5 763.281 34.8438 763.594ZM1271.09 767.187C1273.44 768.125 1272.03 768.594 1266.09 768.594C1261.56 768.75 1257.81 767.969 1257.81 767.187C1257.81 765.312 1266.72 765.312 1271.09 767.187Z" fill="black"/>
<path d="M29.2187 626.093C28.5937 626.562 28.125 627.812 28.125 628.75C28.125 629.687 28.9062 629.531 30 628.437C30.9375 627.5 31.4062 626.25 31.0937 625.781C30.625 625.312 29.6875 625.468 29.2187 626.093Z" fill="black"/>
<path d="M1367.19 578.906C1367.19 580.156 1368.28 581.25 1369.69 581.25C1371.88 581.25 1371.88 580.781 1370.31 578.906C1369.22 577.656 1368.13 576.562 1367.81 576.562C1367.5 576.562 1367.19 577.656 1367.19 578.906Z" fill="black"/>
<path d="M1396.88 591.5C1396.88 592.281 1397.66 593.062 1398.44 593.062C1399.38 593.062 1400 592.281 1400 591.5C1400 590.562 1399.38 589.937 1398.44 589.937C1397.66 589.937 1396.88 590.562 1396.88 591.5Z" fill="black"/>
<path d="M1476.56 595.782C1476.56 601.563 1476.88 601.875 1487.19 603.907C1491.88 604.844 1492.19 604.688 1492.19 600.469C1492.19 596.875 1491.25 595.782 1487.19 594.375C1484.38 593.438 1480.78 592.188 1479.38 591.407C1477.03 590.469 1476.56 591.094 1476.56 595.782Z" fill="black"/>
<path d="M1007.97 619.375C1005.78 622.031 1006.72 626.562 1009.37 626.562C1011.87 626.562 1012.97 622.5 1011.41 619.531C1010 617.187 1009.69 617.187 1007.97 619.375Z" fill="black"/>
<path d="M847.656 649.688C848.125 650.782 848.437 652.5 848.437 653.282C848.437 656.407 851.25 654.532 851.875 650.938C852.5 647.969 852.031 647.188 849.687 647.344C847.969 647.5 847.188 648.438 847.656 649.688Z" fill="black"/>
<path d="M948.438 684.375C948.438 685.156 949.219 685.938 950 685.938C950.938 685.938 951.563 685.156 951.563 684.375C951.563 683.437 950.938 682.812 950 682.812C949.219 682.812 948.438 683.437 948.438 684.375Z" fill="black"/>
<path d="M1067.19 684.375C1067.19 685.156 1067.97 685.938 1068.75 685.938C1069.69 685.938 1070.31 685.156 1070.31 684.375C1070.31 683.437 1069.69 682.812 1068.75 682.812C1067.97 682.812 1067.19 683.437 1067.19 684.375Z" fill="black"/>
<path d="M1814.84 704.687C1814.22 705.625 1812.66 706.094 1811.41 705.625C1810.16 705.156 1809.69 705.312 1810.16 706.094C1810.62 707.031 1809.69 708.281 1808.28 709.219C1806.72 710.156 1806.25 710.938 1807.34 710.938C1808.28 710.938 1809.69 710.156 1810.16 709.219C1810.78 708.281 1812.19 707.969 1813.44 708.437C1814.69 708.906 1816.09 708.281 1816.72 706.875C1817.81 704.062 1816.41 702.187 1814.84 704.687Z" fill="black"/>
<path d="M1782.66 706.094C1784.38 707.187 1784.22 707.812 1781.88 709.219C1780.16 710.156 1779.69 710.938 1780.63 710.938C1781.41 710.938 1782.97 710.156 1784.06 709.062C1785.47 707.656 1786.41 707.656 1787.81 709.062C1788.91 710.156 1790.31 710.938 1791.09 710.938C1791.88 710.938 1790.78 709.531 1788.59 707.812C1786.41 706.094 1783.75 704.687 1782.5 704.687C1780.78 704.687 1780.78 705 1782.66 706.094Z" fill="black"/>
<path d="M1795 708.906C1796.09 709.375 1797.5 709.219 1797.97 708.75C1798.59 708.281 1797.66 707.813 1795.94 707.969C1794.22 707.969 1793.75 708.438 1795 708.906Z" fill="black"/>
<path d="M1793.75 712.5C1793.75 713.281 1794.53 714.062 1795.31 714.062C1796.25 714.062 1796.88 713.281 1796.88 712.5C1796.88 711.562 1796.25 710.937 1795.31 710.937C1794.53 710.937 1793.75 711.562 1793.75 712.5Z" fill="black"/>
<path d="M1813.28 712.5C1813.75 713.281 1814.53 714.062 1815 714.062C1815.31 714.062 1815.63 713.281 1815.63 712.5C1815.63 711.562 1814.84 710.937 1813.91 710.937C1813.13 710.937 1812.81 711.562 1813.28 712.5Z" fill="black"/>
<path d="M1778.28 715.781C1778.12 718.593 1779.37 720.781 1782.34 722.656C1786.41 725.312 1786.41 725.625 1783.59 726.718C1781.25 727.656 1781.09 727.968 1782.97 727.968C1784.37 728.125 1786.41 727.031 1787.5 725.781C1789.06 723.906 1789.06 723.437 1787.19 723.437C1785.31 723.437 1778.44 717.031 1779.53 715.937C1779.69 715.781 1779.53 714.687 1779.22 713.593C1778.75 712.656 1778.28 713.593 1778.28 715.781Z" fill="black"/>
<path d="M1817.97 715.468C1817.5 716.25 1817.81 717.343 1818.75 717.968C1819.53 718.437 1820.31 717.812 1820.31 716.562C1820.31 713.75 1819.37 713.281 1817.97 715.468Z" fill="black"/>
<path d="M1790.31 716.719C1791.41 717.188 1792.81 717.031 1793.28 716.563C1793.91 716.094 1792.97 715.625 1791.25 715.781C1789.53 715.781 1789.06 716.25 1790.31 716.719Z" fill="black"/>
<path d="M1805.94 716.719C1807.03 717.188 1808.44 717.031 1808.91 716.563C1809.53 716.094 1808.59 715.625 1806.87 715.781C1805.16 715.781 1804.69 716.25 1805.94 716.719Z" fill="black"/>
<path d="M1812.5 723.438C1810.47 724.844 1810.47 725.156 1812.5 726.563C1815.62 728.594 1816.72 728.438 1818.12 726.25C1818.91 725 1818.44 724.844 1816.72 725.469C1815.16 725.938 1814.06 725.781 1814.06 725.156C1814.06 724.375 1815 723.281 1816.09 722.969C1817.03 722.5 1817.34 722.031 1816.41 722.031C1815.62 722.031 1813.75 722.656 1812.5 723.438Z" fill="black"/>
<path d="M1296.88 744.375C1296.88 744.688 1298.13 745.938 1299.69 747.031C1302.03 749.063 1302.19 748.906 1300.16 746.406C1298.13 743.906 1296.88 743.125 1296.88 744.375Z" fill="black"/>
<path d="M1267.19 752.344C1265.47 754.375 1265.63 754.531 1267.81 753.75C1269.22 753.281 1270.31 752.187 1270.31 751.406C1270.31 749.375 1269.38 749.687 1267.19 752.344Z" fill="black"/>
<path d="M1327.34 751.562C1326.87 752.5 1327.5 752.656 1328.75 752.187C1331.56 751.094 1332.03 750 1329.84 750C1328.91 750 1327.81 750.625 1327.34 751.562Z" fill="black"/>
<rect y="834" width="2000" height="166" fill="black"/>
</g>
<defs>
<clipPath id="clip0">
<rect width="2000" height="1000" fill="white"/>
</clipPath>
</defs>
</svg>
