<svg xmlns="http://www.w3.org/2000/svg" viewBox="0 0 195.8 244.23"><defs><style>.cls-1{fill:#068487;}.cls-2{fill:#068783;}.cls-3{opacity:0.1;}.cls-4{fill:#106963;}.cls-25,.cls-40,.cls-5{fill:#26c6b3;}.cls-24,.cls-5{isolation:isolate;}.cls-6{opacity:0.15;}.cls-7{fill:#d85dd5;}.cls-8{fill:#33d8e5;}.cls-15,.cls-43,.cls-9{opacity:0.2;}.cls-10{fill:#73c3ba;}.cls-11,.cls-12,.cls-44{fill:#a0eae1;}.cls-12,.cls-38{opacity:0.11;}.cls-13,.cls-15,.cls-26,.cls-27,.cls-45{fill:#047089;}.cls-14{fill:#25d6c4;}.cls-16,.cls-37{opacity:0.3;}.cls-17{fill:#22c4d7;stroke:#22c4d7;stroke-width:0.75px;}.cls-17,.cls-23,.cls-27,.cls-40,.cls-44{stroke-miterlimit:10;}.cls-18,.cls-23{opacity:0.7;}.cls-19{fill:#cee7e4;}.cls-20{fill:#fff;}.cls-21{fill:#ececec;}.cls-22{fill:#b1b1b1;}.cls-23{fill:#bdbebe;stroke:#bdbebe;stroke-width:0.5px;}.cls-26,.cls-27{opacity:0.42;}.cls-27{stroke:#047089;}.cls-28{fill:#c0f0ff;}.cls-29{fill:#e9ecff;}.cls-30{opacity:0.5;}.cls-31{fill:#872983;}.cls-32{fill:#f0b5d1;}.cls-33{opacity:0.8;}.cls-34{fill:#ebcee2;}.cls-35{fill:none;}.cls-36{fill:#2693a4;}.cls-37{fill:#ef97c5;}.cls-39,.cls-43{fill:#4b4aa1;}.cls-40{stroke:#26c6b3;}.cls-41{opacity:0.9;}.cls-42{fill:#f5f5f5;}.cls-44{stroke:#a0eae1;}.cls-45{opacity:0.4;}</style></defs><title>olaph_reading_gruen</title><g id="Ebene_2" data-name="Ebene 2"><g id="blau"><path class="cls-1" d="M36.82,224.31,12.14,237.87"/><path class="cls-2" d="M34.3,220,9.62,233.55c-5.64,3.1-.6,11.74,5.05,8.64l24.68-13.56c5.64-3.1.6-11.74-5.05-8.63Z"/><path class="cls-1" d="M157.14,222.42l25.59,15"/><path class="cls-2" d="M154.62,226.73l25.59,15c5.57,3.25,10.61-5.39,5-8.64l-25.59-15c-5.57-3.25-10.61,5.39-5,8.63Z"/><g class="cls-3"><path class="cls-4" d="M38,226.7c1.66-.44,2.46,0,2.75.72L16,241.68c-3.37,1.94-6.74.24-8.44-2.44C18.05,239.56,32.2,228.22,38,226.7Z"/></g><g class="cls-3"><path class="cls-4" d="M156.61,225.55c-1.68-.5-2.49-.16-2.8.59l24.92,15a6.28,6.28,0,0,0,8.6-2C176.65,239,162.49,227.3,156.61,225.55Z"/></g><path class="cls-5" d="M13.82,239.37A29.62,29.62,0,0,1,15,226.79c.74-2.26-2.63-3.91-3.38-1.62a42.88,42.88,0,0,0-1.19,4.41c-.22-2-.43-4-.65-6-.34-3.19-5.33-2.76-5,.45.22,2.06.3,4.42.47,6.82L3.4,227.92c-1.31-2-4.39.11-3.08,2.14l6.53,10.13a18,18,0,0,0,2.07,3,1.71,1.71,0,0,1,.11.14,2.52,2.52,0,0,0,1.85.91,2.81,2.81,0,0,0,.82,0C14.28,243.83,14,241.29,13.82,239.37Z"/><g class="cls-6"><path class="cls-7" d="M6.78,234.45l-1.56-3.7L3.4,227.92a1.72,1.72,0,0,0-2.64-.36,1.21,1.21,0,0,0,.27.81A74.79,74.79,0,0,0,6.78,234.45Z"/><path class="cls-7" d="M10.43,229.38l-.63-5.79a2.35,2.35,0,0,0-2.14-2.16c-.11,3,2.42,10.17,2.42,10.17Z"/><path class="cls-7" d="M11.38,237.23a11.37,11.37,0,0,0,2.32,5.46,7.87,7.87,0,0,0,.12-3.32A29.62,29.62,0,0,1,15,226.79a2,2,0,0,0,.1-.82l-1.73,3.15S11.07,233.69,11.38,237.23Z"/></g><path class="cls-5" d="M187.26,238.76a29.58,29.58,0,0,1,4-12c1.23-2-1.68-4.41-2.93-2.35a42.2,42.2,0,0,0-2.16,4c.24-2,.49-4,.73-6,.38-3.18-4.57-3.9-5-.69-.24,2.06-.7,4.37-1.08,6.75l-1.18-3.29c-.82-2.28-4.3-.89-3.48,1.38L180.29,238a18.35,18.35,0,0,0,1.35,3.35c0,.06,0,.11.07.16a3.15,3.15,0,0,0,2.4,1.49C186.7,243.21,187,240.68,187.26,238.76Z"/><g class="cls-6"><path class="cls-8" d="M181.52,232.37l-.67-4-1.14-3.17a1.72,1.72,0,0,0-2.49-.95,1.27,1.27,0,0,0,.08.86A76.27,76.27,0,0,0,181.52,232.37Z"/><path class="cls-8" d="M186.23,228.26c.23-1.93.46-3.85.7-5.78a2.35,2.35,0,0,0-1.6-2.58c-.78,2.86,0,10.44,0,10.44Z"/><path class="cls-8" d="M185.37,236.13a11.45,11.45,0,0,0,1,5.84,7.81,7.81,0,0,0,.86-3.21,29.58,29.58,0,0,1,4-12,2.23,2.23,0,0,0,.28-.78l-2.4,2.67S185.87,232.6,185.37,236.13Z"/></g><g class="cls-9"><path class="cls-10" d="M25,225.12c.81-.21,2.89-1.06,5.3,2.18,3.68,4.94-1.59,7.07-1.59,7.07,1.53,2.88,4.6,2.86,7.28,1l1.42-1a17.19,17.19,0,0,0-3.25-8.07c-1.88-2.23-9-7.79-10.3-3.44C23.87,224.32,24.6,225.22,25,225.12Z"/></g><g class="cls-9"><path class="cls-10" d="M25,225.12c.81-.21,2.89-1.06,5.3,2.18,3.68,4.94-1.59,7.07-1.59,7.07,1.53,2.88,4.6,2.86,7.28,1l1.42-1a17.19,17.19,0,0,0-3.25-8.07c-1.88-2.23-9-7.79-10.3-3.44C23.87,224.32,24.6,225.22,25,225.12Z"/></g><path class="cls-11" d="M163.88,232.28s-5-2.66-.87-7.2c2.73-3,4.71-1.93,5.5-1.63s4-4.27-3.12-9.49l-5.91.62L147,224.39l9.58,8.16C159,234.66,162.07,235,163.88,232.28Z"/><path class="cls-12" d="M163.88,232.28s-5-2.66-.87-7.2c2.73-3,4.71-1.93,5.5-1.63s4-4.27-3.12-9.49l-5.91.62L147,224.39l9.58,8.16C159,234.66,162.07,235,163.88,232.28Z"/><path class="cls-11" d="M28.68,234.37s5.27-2.13,1.59-7.07c-2.41-3.24-4.49-2.39-5.3-2.18S21.44,220.48,29,216l5.81,1.21,11.47,11L36,235.38C33.28,237.23,30.21,237.25,28.68,234.37Z"/><g class="cls-9"><path class="cls-13" d="M25,225.12c.81-.21,2.89-1.06,5.3,2.18,3.68,4.94-1.59,7.07-1.59,7.07,1.53,2.88,4.6,2.86,7.28,1l1.42-1a17.19,17.19,0,0,0-3.25-8.07c-1.88-2.23-9-7.79-10.3-3.44C23.87,224.32,24.6,225.22,25,225.12Z"/></g><g class="cls-9"><path class="cls-13" d="M168.51,223.45c-.84-.25-2.52-1.36-5.4,1.56-4.4,4.47.76,7.27.76,7.27-1.92,2.68-4.55,2.26-7,.61,0,0,1.77-6.15,3.57-7.77,2.2-2,8.63-8.71,9.45-4.2C169.72,222.34,169.16,223.64,168.51,223.45Z"/></g><path class="cls-11" d="M180.66,164.89A77.46,77.46,0,0,1,173,202.06a57,57,0,0,1-25.15,25.79c-15,7.7-32.57,8.29-49.46,8.31-12,0-24.2-.2-35.92-3s-23.11-8.31-31-17.43c-6.5-7.55-10.25-17.14-12.21-26.89s-2.26-19.76-2.54-29.71l.12-45.65C17.54,99,24.44,84.3,29.45,70.68S41.2,52.25,53.93,45.29c12.31-6.72,23.6-15.37,37.61-15.75,18.52-.49,37.7,5.65,54.06,14.33,13.94,7.4,20.16,17.92,26.43,32.4s13,27.15,13.25,42.93Z"/><path class="cls-11" d="M178.16,164.89c.89,24.49-9.49,49.9-32.32,61.18-11.67,5.77-24.93,7.11-37.76,7.47-13.34.38-27.09.59-40.26-1.79C55.93,229.6,44.07,225,35.43,216.3c-9.16-9.24-13.17-22.16-14.79-34.78-1.73-13.49-1.33-27.17-1.3-40.73,0-11-1.07-22.68.73-33.57C22.12,94.83,27.32,83,31.86,71.35c3.72-9.52,9.48-15.82,18.23-21C59.88,44.52,70.13,37.55,81,34c12.05-3.94,25.79-1.65,37.73,1.69,11.49,3.21,24.09,7.87,33.47,15.46,7.66,6.2,12.47,14.79,16.47,23.64,5.85,13,12.86,26.44,14,40.83.35,4.6-.4,9.15-.86,13.71l-3.6,35.57c-.33,3.2,4.68,3.18,5,0l3.51-34.71c.49-4.83,1.33-9.71,1-14.57-1-12.66-6.16-24.19-11.25-35.65-4.35-9.8-8.48-19.81-15.83-27.81-8-8.76-19.39-13.84-30.33-18C118,29.6,104.65,26.52,91.54,27c-12.89.52-23.64,7.33-34.48,13.61-8.43,4.88-17.48,9.13-23.54,17.05A48.54,48.54,0,0,0,27,70c-2.59,6.71-5.28,13.41-7.62,20.22-2.88,8.38-5,17-5,25.88l0,18.74c0,14.91-.57,30,1.06,44.81,1.36,12.26,4.49,24.68,11.89,34.77,7,9.54,17.33,15.83,28.46,19.47,14.8,4.83,30.75,4.86,46.15,4.74,14.33-.12,29.09-.92,42.48-6.47,26.73-11.09,39.78-39.42,38.76-67.29C183,161.68,178,161.67,178.16,164.89Z"/><path class="cls-14" d="M159.11,168c-36-60.85-98.26-35.17-112.14-22.79-10.74,9.57-16.65,23.44-18.15,37.74a182.55,182.55,0,0,0-1,23.77v3.1a45.67,45.67,0,0,0,4.36,6c7.86,9.12,19.24,14.66,31,17.43s23.88,3,35.92,3c16.89,0,34.44-.61,49.46-8.31a56.78,56.78,0,0,0,15.19-11.41l.55-2.19C166.21,198.69,167.1,181.44,159.11,168Z"/><path class="cls-14" d="M161.27,166.69c-13.05-21.68-33.17-37.64-59-39.84a85.77,85.77,0,0,0-51.38,12.33c-9.38,5.87-16.1,15.13-20.18,25.32-3.09,7.73-4.33,15.81-5,24.07-.34,4.58-.52,9.18-.51,13.78,0,2.26-.42,5.48.1,7.76.7,3,4,6.35,6.1,8.59a50.71,50.71,0,0,0,8.8,7.48,67.35,67.35,0,0,0,22.22,9.43c17.86,4.23,37.7,3.93,55.91,2.43,9.1-.75,18.19-2.35,26.66-5.86a59.82,59.82,0,0,0,13.5-7.76c2.57-2,6.28-4.45,7.61-7.49s1.11-6.92,1.39-10a114.49,114.49,0,0,0,.46-14.1c-.35-9.16-2.25-18.08-6.78-26.11-1.58-2.8-5.9-.28-4.31,2.52,7.29,12.92,7.42,29.73,4.94,44.07-.49,2.82-2.8,4.32-5,6.12a53.31,53.31,0,0,1-11.17,7.06,75.23,75.23,0,0,1-23.82,6.24c-16.42,1.84-34.26,2-50.62-.49-15.21-2.29-30.58-8.43-39.75-21.38-1.41-2-1.19-3.36-1.23-5.86q-.09-6.33.25-12.65c.42-7.72,1.21-15.39,3.65-22.77,3.35-10.16,9.62-19.88,18.74-25.73,12.62-8.1,28.35-12.28,43.28-12.24,26.43.09,47.41,15.53,60.72,37.63C158.61,172,162.94,169.46,161.27,166.69Z"/><path class="cls-15" d="M42.17,223.06c-3.62-2.14-6.24-1.6-6.24-1.6a65.31,65.31,0,0,1,7.13,4.46c2.3,1.83,1.95,3.33,1.95,3.33,12.29,7.4,36.89,9.78,37.46,9C83.24,237.16,44.05,224.18,42.17,223.06Z"/><path class="cls-14" d="M176.48,73c-6.27-14.48-16.76-27.46-30.71-34.86-16.36-8.68-35.74-9.07-54.25-8.58-14,.38-28.57,1.29-40.88,8C37.91,44.52,29,57.14,24,70.75S17.52,99,16.89,113.52l-.07,26,11.47-15.65c3.47-13,5.77-24.84,10.77-36.56A46.63,46.63,0,0,1,55.77,67.1c5.26-3.54,11.44-6,17.78-5.84,9.55.28,18,6.5,24.21,13.73,8.79-6.65,18.61-13.32,29.63-13.19,9.13.1,17.72,5.06,23.91,11.78s20.8,41.81,24.79,50.31L182.75,144l2.5-24.76C185,103.42,182.75,87.47,176.48,73Z"/><path class="cls-14" d="M178.64,71.72c-7.38-16.63-19.86-31.1-36.88-38.24C122.61,25.45,100,26,79.68,27.6c-19.37,1.51-36.56,8-48.37,24C19,68.43,15.67,89.58,14.56,109.9c-.53,9.85-.22,19.77-.24,29.64,0,2.66,3.27,3.15,4.66,1.26l9.67-13.2c2.05-2.8,2.57-5,3.48-8.55,1.63-6.43,3.16-12.9,5.1-19.26,3.85-12.64,9.6-24.33,21.25-31.47,14.07-8.61,27.35-3,37.52,8.44a2.51,2.51,0,0,0,3,.39c6.78-5.1,14.08-10.46,22.55-12.26,9-1.91,17.83,1.36,24.67,7.26,7.72,6.67,11.68,17.59,15.86,26.62,3.92,8.48,8.32,17.46,11.62,25.93,2.52,6.49,4.41,13.31,6.61,19.92a2.51,2.51,0,0,0,4.91-.66c.79-7.78,1.74-15.55,2.36-23.34,1.27-15.91-2.58-33.71-8.72-48.3-1.23-2.92-6.07-1.64-4.82,1.33,6.09,14.47,9.82,31.73,8.49,47.49-.65,7.61-1.54,15.21-2.31,22.82l4.91-.67c-4.12-12.42-8.49-24.21-13.81-36.17-7.54-16.94-14.21-38.18-33-45.59-15.46-6.1-29.67,2.15-41.85,11.3l3,.39C91,63.62,79.32,56.36,66.07,59.63c-12.5,3.08-23.18,13.59-28.53,25a123.19,123.19,0,0,0-7.08,20.69c-1.52,5.68-2.11,13-4.89,18.06s-7.37,10-10.91,14.88l4.66,1.27C19.38,115.06,18,89,28.5,66.25c8.34-18,23-29.51,42.6-32.67,9.59-1.54,19.46-1.66,29.15-1.67,9.92,0,19.92.5,29.59,2.89,20.87,5.18,35.91,20.11,44.48,39.45C175.63,77.18,179.94,74.64,178.64,71.72Z"/><g class="cls-16"><path class="cls-17" d="M19.43,137.26c2.16-4.16,2.12-71.87,31.26-91.12A169,169,0,0,1,88.81,27.41c-2.5.15-5,.33-7.42.52C61.72,29.46,44.22,36,32.2,52.3,19.52,69.48,16.15,91.18,15,112c-.45,8.19-.32,16.42-.27,24.63l.52,2.13S17.27,141.41,19.43,137.26Z"/></g><g id="Schattenpapier" class="cls-18"><g class="cls-18"><path class="cls-13" d="M48.9,125.25l-10.81,3.34A2.53,2.53,0,0,0,36.25,131l.82,9.19a2.59,2.59,0,0,0,1.84,2.41c2.48.7,5,.43,6.23-2.12,1.39-2.94,2.11-6.4,3.11-9.5.74-2.27-2.6-4.43-4.17-2.44l-4,5.07c-2,2.5,1.54,6.06,3.53,3.54l4-5.07-4.18-2.43-1.7,5.26c-.28.87-.65,1.74-.85,2.63l-.28.88c.49-.45.37-.66-.36-.64l1.83,2.41L41.25,131l-1.83,2.41,10.81-3.34c3.07-.95,1.76-5.78-1.33-4.82Z"/></g><g class="cls-18"><path class="cls-13" d="M44.42,184c-6-1.5-5.51-14.28-5.43-19.09l-1.25,1.25,4.51.52L41,165.14A44.57,44.57,0,0,0,40.51,183l2.29-1a24,24,0,0,1-1.89-16.24l-2.46-.33.69,5.63c.19,1.58,2.69,1.6,2.5,0L41,165.43c-.15-1.28-2.12-1.83-2.45-.33a26.79,26.79,0,0,0,2.14,18.16c.67,1.37,2.5.34,2.28-1a41.32,41.32,0,0,1,.53-16.5,1.27,1.27,0,0,0-1.2-1.58l-4.51-.52A1.26,1.26,0,0,0,36.49,165c-.1,6.22-.55,19.53,7.26,21.5a1.25,1.25,0,0,0,.67-2.41Z"/></g></g><path class="cls-19" d="M149.77,141.77,153,128.6c.35-1.46-.73-3.31-2.41-3.17a580.6,580.6,0,0,1-100.33-.28c-3.2-.29-3.18,4.71,0,5a580.6,580.6,0,0,0,100.33.28l-2.41-3.16L145,140.44c-.76,3.13,4.06,4.46,4.82,1.33Z"/><path class="cls-19" d="M47.41,126.8l-3.72,13.1c-.88,3.1,4,4.42,4.83,1.33l3.71-13.1c.88-3.1-3.95-4.42-4.82-1.33Z"/><path class="cls-19" d="M42.74,166.77c-.58,5.19-3.56,19.39,4.46,20.6,7.48,1.13,9-10.68,9.23-15.73.18-3.22-4.82-3.21-5,0a27.49,27.49,0,0,1-.93,6c-.47,1.71-2,7-3.44,2-.49-1.72,0-4.32.11-6.07.11-2.27.32-4.53.57-6.78.35-3.2-4.65-3.17-5,0Z"/><path class="cls-19" d="M137.78,193.36,49.13,183.8c-3.19-.35-3.17,4.66,0,5l88.65,9.56c3.2.35,3.18-4.65,0-5Z"/><path class="cls-20" d="M112.57,176.24q-2.17-.11-4.35-.15a2.49,2.49,0,0,0-1.59-.73c-11-.71-22.1-1.5-33.15-2.13a42.71,42.71,0,0,0-9.61.36,63.13,63.13,0,0,0-6.45.16,2.5,2.5,0,0,0-2.28,1.86,2.47,2.47,0,0,0-2.09,1.7l-1.56,4.52a2.25,2.25,0,0,0-.07,1.37,2.53,2.53,0,0,0,2.43,3.05l3.89.16a2.24,2.24,0,0,0,2.88,1.39c1.26-.39,2.53-.76,3.81-1.12l1.42.06a2.14,2.14,0,0,0,2-1l.42-.1a1.34,1.34,0,0,1,.2,0l44.06-4.41C115.73,180.92,115.84,176.4,112.57,176.24Z"/><path class="cls-19" d="M78.08,183.51,139,188.85c.8.08.79-1.18,0-1.25l-60.88-5.34c-.8-.07-.8,1.18,0,1.25Z"/><path class="cls-20" d="M47,185l1.26,1.34,88.65,9.56.74-.66a32.88,32.88,0,0,0,11.61-15.61l-.35-2.29-95.76-5.8-.09.14a28.67,28.67,0,0,1-2,9.55,8.13,8.13,0,0,1-1.46,2.58A3.4,3.4,0,0,1,47,185a3.48,3.48,0,0,1-2.79-2.25,9.72,9.72,0,0,1-.54-3.72,101.82,101.82,0,0,1,.7-12.22l5-39.12a568.86,568.86,0,0,0,100.33.28l-3.2,13.18-4.73,24.24L139.31,174"/><path class="cls-21" d="M45.25,186.73c2.7,2.85,6.09,2.4,9.93,2.81l18.71,2,38.42,4.15,18.71,2c2,.21,5,1.16,6.88.42a14.33,14.33,0,0,0,3.33-2.6c5.26-4.47,11.21-11.7,10.11-18.92a2.52,2.52,0,0,0-2.41-1.83L53.17,169A2.5,2.5,0,0,0,51,170.23c-.9,1.42-.61,4.12-.92,5.61-.43,2.09-2.17,8.13-3.88,3.78-.77-2,.11-6.44.26-8.5.11-1.49.26-3,.43-4.48.45-3.79,1-7.56,1.45-11.34l3.53-27.65-2.5,2.5a580.6,580.6,0,0,0,100.33.28l-2.41-3.16c-3.72,15.31-6.08,30.93-10.4,46.07-.89,3.1,3.94,4.43,4.82,1.33,4.33-15.14,6.69-30.77,10.4-46.07.35-1.46-.73-3.31-2.41-3.17a580.6,580.6,0,0,1-100.33-.28c-1.46-.13-2.34,1.26-2.5,2.5l-4.43,34.73c-.19,1.45-.39,2.9-.56,4.36-.57,4.89-2,11.89-.07,16.63,1.52,3.82,5.82,5.32,9.08,2.56a11,11,0,0,0,2.89-4.84,28.72,28.72,0,0,0,1.27-4.73c.15-.84,0-3.18.27-3.6L53.17,174l95.76,5.8L146.52,178c.45,3-1.82,6-3.58,8.43a30.39,30.39,0,0,1-4.67,5.14c-.77.65-1.56,1.28-2.37,1.9-.34.53-.65.44-.94-.28-4.13.53-9.59-1-13.79-1.49L105.41,190l-29.55-3.19-15.76-1.7c-3-.32-9.3.25-11.31-1.88-2.22-2.34-5.75,1.2-3.54,3.54Z"/><path class="cls-22" d="M60.24,180.14l76.51,6.55c.8.07.8-1.18,0-1.25l-76.51-6.55c-.8-.07-.8,1.18,0,1.25Z"/><path class="cls-22" d="M59.2,183.56l76.51,6.55c.8.07.8-1.18,0-1.25L59.2,182.31c-.8-.07-.8,1.18,0,1.25Z"/><path class="cls-23" d="M51.83,169.42s-5.07,1.9-5.34,3.12l-.44,5.34a4.76,4.76,0,0,0,.58,2.84.82.82,0,0,0,.62.45c.73,0,1.84-.61,2.79-4.77S49.31,172.05,51.83,169.42Z"/><g class="cls-9"><path class="cls-13" d="M142.42,231.67c26.72-11.08,39.77-39.42,38.75-67.29q.68-6.75,1.36-13.5c-7.37,4.29-9.56,12.73-13.33,27.42-12,46.66-42.64,47.06-50.84,53.43-3.28,2.55-14.24,3.36-20.86,6.43l2.43,0C114.26,238,129,237.22,142.42,231.67Z"/></g><g class="cls-24"><path class="cls-25" d="M43.47,163.53C35.14,162.14,15,157.9,5.9,146c-2.8-3.66-1.64-21.42-.18-24.92s4.87-6.5,8.65-6.21c2.92.23,5.35,2.26,7.52,4.22C33.22,129.32,56.33,155.81,56.28,158c-.06,2.54-2.24,4.64-4.66,5.44S43.47,163.53,43.47,163.53Z"/><path class="cls-25" d="M44,161.73c-11.92-2-25.42-5.48-34.26-14.26-4.25-4.24-3.81-10.14-3.56-15.79.29-6.55,2.24-20.11,12.31-13,4.8,3.38,8.89,8.25,12.9,12.5q6.48,6.86,12.66,14a139.4,139.4,0,0,1,9.2,11.26c3.84,5.52-6.07,5.65-9.75,5.24-2.4-.27-2.38,3.48,0,3.75,4.73.53,10.32.8,13.36-3.61,2.32-3.37,1-5.49-1.14-8.32-7.15-9.63-15.49-18.55-23.79-27.18-4-4.16-8.5-9.83-13.82-12.32-5.6-2.63-11.67.63-14,6.12-1.82,4.32-1.75,9.94-1.78,14.53s-.09,9.88,3,13.64C14.23,159,29.84,163.1,43,165.34,45.33,165.74,46.34,162.13,44,161.73Z"/></g><path class="cls-26" d="M16.18,113.72c4.82,0,21.93,16.85,40.5,41.42.62.81-.6,1.8-1.32,1.08-7.56-7.5-29.19-29.08-41.62-41.11C13,114.39,13.07,113.7,16.18,113.72Z"/><g class="cls-24"><path class="cls-25" d="M174.34,163.58c-12.81,2.69-34.63.88-36.8-2.09-1.83-2.51-1.57-6.11-.12-8.86s3.9-4.83,6.35-6.75c12.26-9.59,26.14-16.88,39.92-24.11a15.57,15.57,0,0,1,4.2-1.7c1.49-.28,7.15,0,5.77,8.15-.69,4.12-3.09,23-5.68,27.57S180,162.39,174.34,163.58Z"/><path class="cls-25" d="M173.84,161.77a82.2,82.2,0,0,1-19.25,1.15c-4.23-.18-10.58.12-14.41-2-8.41-4.69,6.87-15.25,10.31-17.67a217.81,217.81,0,0,1,20.66-12.65c3.42-1.88,6.86-3.7,10.31-5.52,2.07-1.09,5.9-4,8.4-3,3.9,1.56,1.41,9.62.9,12.9-.76,5-1.54,10-2.77,14.94-1.87,7.47-6.8,10.22-14.15,11.88-2.35.53-1.36,4.15,1,3.62,5.79-1.31,12.16-3.51,15-9.18,2.19-4.33,2.76-9.76,3.58-14.48,1-6,6.08-21.11-2.9-23.37-5.09-1.28-10.79,3.35-15,5.56-7.93,4.22-15.8,8.58-23.29,13.55-5.74,3.8-13.75,8.3-16.77,14.83-1.69,3.66-1.82,9.25,2.08,11.56,4.09,2.42,10.43,2.43,15,2.71a88.07,88.07,0,0,0,22.23-1.18C177.2,164.92,176.2,161.31,173.84,161.77Z"/></g><path class="cls-27" d="M136.36,159.82a1,1,0,0,0-1.24,1.51c1.33,1.78,4.12,3.84,10,4.42,10.92,1.08,25.5,1.07,34.56-1.86s10.77-8.52,10.77-8.52-8.65,7.08-27.73,7.78C146.79,163.73,137.49,160.39,136.36,159.82Z"/><path class="cls-28" d="M71.37,74.07a86.87,86.87,0,0,0-16.3,1.55A2.19,2.19,0,0,0,53.34,77,3.3,3.3,0,0,0,52.51,80c.09.53.15,1,.22,1.56a10.18,10.18,0,0,0-.56,9.39,12.43,12.43,0,0,0,.42,2.46,12.22,12.22,0,0,0,.52,1.44c0,1.4-.09,2.81-.11,4.27-.06,3.48,1,6.58,4,7.93,3.93,1.75,9.82,1.81,14,2a7.9,7.9,0,0,0,4.22-.76,5.74,5.74,0,0,0,3.69-2.91,7.08,7.08,0,0,0,.53-4.75c1-3.8,1.64-7.91,2.49-11.57.93-4,1.87-8.59-.83-12C78.67,74,74.68,74.1,71.37,74.07Z"/><path class="cls-28" d="M142.8,79.51c-3.41-3-8.8-2.4-12.8-2.38a134.77,134.77,0,0,0-18.71,1.44,2.64,2.64,0,0,0-1.59.85,2.85,2.85,0,0,0-1.89,3.6c.11.48.19,1,.28,1.44a10.21,10.21,0,0,0-1.71,4.46,9.4,9.4,0,0,0,1,5.91,8.5,8.5,0,0,0,1.38,3.43,25.31,25.31,0,0,0-.27,5.47,7.23,7.23,0,0,0,6.07,6.71c5.21,1.17,11,1.34,16.31,1.62,2.4.12,4.53-.13,6.22-1.43,3.5-.95,4.29-3.58,3.71-6.7a128.07,128.07,0,0,0,4-14C145.74,86.14,145.79,82.15,142.8,79.51Z"/><g class="cls-18"><path class="cls-29" d="M62.48,72.46l-2,2.05a2.55,2.55,0,0,0-.39,3l16.37,24.15a2.53,2.53,0,0,0,3.92.5l2.72-2.76a2.54,2.54,0,0,0,.39-3l-15.69-23c-1.81-2.64-6.14-.14-4.32,2.53l15.69,23,.39-3-2.71,2.77,3.92.5L64.38,75,64,78,66,76c2.27-2.29-1.27-5.83-3.53-3.53Z"/><path class="cls-29" d="M120.29,72.14l-2.84,2.72a2.54,2.54,0,0,0-.39,3L140,110a2.53,2.53,0,0,0,3.92.51l3.81-3.68a2.53,2.53,0,0,0,.39-3l-22-30.59c-1.86-2.59-6.2-.1-4.32,2.52l22,30.59.39-3-3.8,3.68,3.93.51L121.38,75.37l-.39,3,2.83-2.73c2.33-2.23-1.21-5.76-3.53-3.53Z"/></g><g class="cls-30"><path class="cls-31" d="M77.67,78.23c3.89,1.25,2.44,6.23,2.08,9.46-.41,3.72-.84,7.44-1.42,11.14s-1.11,7.18-3.61,10c-2.22,2.55-4.5,2.36-7.6,2.35s-6-.16-8.94-.38c-1.34-.1-6.14.15-7.11-.89s-.61-5.61-.67-7.24q-.15-4.38-.13-8.76c0-6.17.28-12.32.73-18.47L48.5,78c9.36-.91,20-2.07,29.17.24,3.12.79,4.45-4,1.33-4.82C69.29,71,58.37,72,48.5,73a2.59,2.59,0,0,0-2.5,2.5c-.62,8.42-.86,16.85-.65,25.28.09,3.88-.75,11.34,3.44,13.63,2.7,1.48,7,1.28,9.91,1.49a76.88,76.88,0,0,0,12.51.22c9.49-.89,11.41-11.84,12.44-19.45q.91-6.64,1.57-13.32c.49-5.22-1.14-8.3-6.22-9.93C75.93,72.43,74.61,77.25,77.67,78.23Z"/><path class="cls-31" d="M141.7,116.68c2.26-3.57,2.18-9.17,2.57-13.21.55-5.87.88-11.77,1.15-17.66.58-12.94-16.18-11.17-25-11.1-4.61,0-10.65-.43-15,1.3-3.34,1.32-2.84,5-3,8.07-.34,6.19-.58,12.4-.67,18.59-.08,5.08.14,11.37,5.62,13.37,5.75,2.09,12.63,2.22,18.67,2.66,5.13.38,11.22,1.93,15.36-1.52,2.48-2.06-1.07-5.58-3.53-3.53-1,.8-2,.78-.54.58a21.58,21.58,0,0,1-3.5-.09q-4.5-.17-9-.53c-3.27-.25-6.55-.55-9.79-1-1.79-.26-5.14-.33-6.65-1.46-3.64-2.73-1.46-15.27-1.31-19.53.11-3,.21-6,.41-8.94a10.72,10.72,0,0,0,.22-2.86c.63,1.93-1.8.32-.31.86,1.24.46,4.76-.62,6.16-.71,3.12-.19,6.25-.25,9.38-.22,4,0,16-1.23,17.53,3.73.61,2-.1,5.1-.21,7.2q-.26,4.65-.61,9.3c-.32,4.07.09,10.62-2.18,14.21C135.66,116.88,140,119.39,141.7,116.68Z"/><path class="cls-31" d="M49.61,90.39C39.43,81.54,30.72,71.18,20.54,62.33c-2.42-2.1-6,1.42-3.54,3.54,10.18,8.85,18.89,19.2,29.07,28.06,2.42,2.1,6-1.42,3.54-3.54Z"/><path class="cls-31" d="M175.62,61,142.73,92c-2.34,2.22,1.2,5.75,3.54,3.54l32.89-31c2.34-2.22-1.2-5.75-3.54-3.54Z"/><path class="cls-31" d="M105.62,94.22c-2.34-3.94-6.82-5.2-11.12-5.75C88.27,87.69,85,90.85,80,94c-2.72,1.7-.22,6,2.52,4.31,3.23-2,6-5.06,10-5.06,2.87,0,7.25.83,8.82,3.47s6,.25,4.31-2.52Z"/></g><g class="cls-24"><path class="cls-32" d="M80.53,77c2.87.92,1.44,5.72,1.16,8.25-.4,3.61-.81,7.22-1.37,10.81-.52,3.33-1,6.83-3.29,9.5-2,2.28-3.93,2-6.71,2-3,0-6-.15-8.95-.37-1.17-.09-6.07-.09-6.62-.79,0,0,.13-5.16.1-6.1-.1-2.91-.14-5.83-.14-8.75,0-6.17.28-12.33.73-18.48l-3.75,3.75c9.24-.89,19.76-2.08,28.84.2,4.68,1.18,6.68-6,2-7.23-9.82-2.47-20.84-1.43-30.83-.47a3.88,3.88,0,0,0-3.75,3.75c-.61,8.42-.86,16.85-.65,25.29.11,4.52-.66,12.06,4.07,14.71,2.88,1.62,7.34,1.43,10.53,1.65a78.13,78.13,0,0,0,12.52.22c10.17-.88,12.52-12.09,13.64-20.37.62-4.53,1.17-9.09,1.61-13.65.55-5.76-1.57-9.34-7.14-11.13C77.92,68.31,75.94,75.55,80.53,77Z"/><path class="cls-32" d="M146,114.89c2.38-3.77,2.32-9.56,2.73-13.84.56-5.87.88-11.76,1.15-17.65.24-5.21-2.48-10-7.8-11.13C136.07,71,129.67,71,123.58,71c-4.8,0-10.8-.34-15.39,1.35-4.08,1.5-3.72,5.58-3.92,9.27-.34,6.19-.57,12.4-.67,18.59-.08,5.69.43,12.43,6.54,14.57,5.91,2.08,12.82,2.27,19,2.72,5.59.41,11.72,1.87,16.24-1.89,3.71-3.09-1.62-8.37-5.3-5.3l-1.59,1.31,2.66-1.09c-5.62,0-11.25-.4-16.83-.94-3.28-.31-10.73-.17-12.68-2.91-1.59-2.25-.52-7.65-.44-10.37.1-3.22.2-6.43.33-9.64.1-2.45.18-4.9.37-7.34a10.69,10.69,0,0,1,.15-1.77c-2.23,1.72-2.72,2.36-1.46,1.89.36-.09.72-.17,1.08-.23,5.21-.09,10.38-.79,15.62-.7,3.53.06,14.15-1.06,15.13,3.3.41,1.86-.21,4.44-.31,6.36-.17,3.1-.36,6.2-.61,9.3-.3,3.82.06,10.32-2,13.58C136.91,115.2,143.4,119,146,114.89Z"/><path class="cls-32" d="M53.69,87.09,20,58.22c-3.65-3.13-9,2.15-5.3,5.3L48.38,92.4c3.65,3.12,9-2.16,5.31-5.31Z"/><path class="cls-32" d="M174,61.37,145,88.7c-3.52,3.32,1.79,8.62,5.3,5.31l29-27.34c3.52-3.31-1.79-8.61-5.3-5.3Z"/><path class="cls-32" d="M109.9,91.17c-2.59-4.35-7.45-5.78-12.21-6.36-6.46-.79-9.94,2.43-15.17,5.71-4.08,2.56-.32,9,3.78,6.48,3-1.87,5.69-4.91,9.38-4.89,2.4,0,6.41.61,7.74,2.84,2.47,4.15,9,.38,6.48-3.78Z"/></g><g class="cls-33"><path class="cls-34" d="M134.24,73c-.43-.35-1.1.08-1.2.66a1.6,1.6,0,0,0,.69,1.5,3.53,3.53,0,0,0,1.51.48,22,22,0,0,1,6.35,1.47,7.26,7.26,0,0,1,4.19,5.23A13.75,13.75,0,0,0,146,84a1.76,1.76,0,0,0,.94,1.25c.71.25,1.48-.46,1.67-1.28a4.59,4.59,0,0,0-.33-2.5,13,13,0,0,0-4.57-6.36,18,18,0,0,0-4.08-1.89,13.63,13.63,0,0,0-2.82-.79,4.48,4.48,0,0,0-2.83.46"/></g><g class="cls-33"><path class="cls-34" d="M86.45,83c.22-2.89,0-6-1.42-8.39a7.34,7.34,0,0,0-6.76-3.76,1.09,1.09,0,0,0-.69.24,1,1,0,0,0-.06,1.19,1.49,1.49,0,0,0,1,.63c.38.07.77.06,1.15.11A5,5,0,0,1,83.16,76a11.19,11.19,0,0,1,1,4.92,11.33,11.33,0,0,0,.05,1.43,2.56,2.56,0,0,0,.52,1.28,1.11,1.11,0,0,0,1.16.39,1,1,0,0,0,.57-1.12"/></g><path class="cls-35" d="M141.1,80.5c-1.54-1.16-5.16-.75-7-.88-3.05-.22-6.1-.3-9.16-.3-2.86,0-5.73.06-8.59.25-1.14.07-2.89.61-4.25.67,0,.19,0,.36,0,.44-.2,3.34-.31,6.69-.43,10-.11,3.18-.24,6.36-.28,9.54s-.54,5.77,2.1,7c4.29,1.94,10.25,1.62,14.8,2q4.19.33,8.37.49a23.9,23.9,0,0,0,2.93.09h.22c1.66-3.8,1.35-10.07,1.63-14C141.64,92.57,143.74,82.49,141.1,80.5Z"/><path class="cls-35" d="M80.47,77.78c-8-2-16.79-1.33-25-.54-.3,5-.47,10-.47,15,0,3.19,0,6.4.19,9.58a31.29,31.29,0,0,0,.3,4.1c1.71.61,4.27.38,5.84.5,2.9.22,5.82.36,8.74.38,1.81,0,4.06.22,5.44-.51,3.09-1.62,3.9-6,4.46-9.38.19-1.11.36-2.23.52-3.35a4.27,4.27,0,0,1,.18-1.33c.3-2.29.57-4.59.83-6.88C81.73,82.78,83.13,78.63,80.47,77.78Z"/><path class="cls-36" d="M55.44,105.9h0l-.09,0Z"/><path class="cls-37" d="M67.27,69.39a8.68,8.68,0,0,0,1.93-1.25,165.23,165.23,0,0,0-17.08,1c-2.25.22-3.74,1.88-3.93,4.46s-.33,5.1-.45,7.66L20.31,57.77c-4-3.47-8,4.28-4,7.7L47.47,92.18c0,3.25.05,6.51.19,9.76.12,2.94.28,6.36,1.54,8.91,1.93-5.13.37-24.11,2.2-32.19C53.55,69.16,61.25,72.46,67.27,69.39Z"/><path class="cls-35" d="M141.1,80.71c-1.54-1.13-5.16-.74-7-.86-3.05-.21-6.1-.29-9.16-.3-2.86,0-5.73.06-8.59.24-1.14.08-2.89.6-4.25.66,0,.19,0,.35,0,.43-.2,3.24-.31,6.5-.43,9.75-.11,3.09-.24,6.18-.28,9.27s-.54,5.61,2.1,6.77c4.29,1.89,10.25,1.58,14.8,1.92q4.19.31,8.37.48a26.06,26.06,0,0,0,2.93.08h.22c1.66-3.69,1.35-9.78,1.63-13.56C141.64,92.43,143.74,82.64,141.1,80.71Z"/><path class="cls-35" d="M80.47,78.05c-8-1.93-16.79-1.29-25-.51-.3,4.84-.47,9.69-.47,14.55,0,3.1,0,6.22.19,9.32a29.49,29.49,0,0,0,.3,4c1.71.6,4.27.37,5.84.49,2.9.21,5.82.35,8.74.36,1.81,0,4.06.22,5.44-.49,3.09-1.57,3.9-5.85,4.46-9.12.19-1.08.36-2.16.52-3.25a4.09,4.09,0,0,1,.18-1.3c.3-2.22.57-4.46.83-6.68C81.73,82.92,83.13,78.89,80.47,78.05Z"/><path class="cls-36" d="M55.44,105.39h0l-.09,0Z"/><path class="cls-37" d="M106.38,88.89c.78-14.39,5.13-13.61,8.83-16.22.91-.64,1.87-1.26,2.77-1.87a31.4,31.4,0,0,0-9.56,1.2c-4,1.34-4.08,4.89-4.34,8.88-.1,1.55-.19,3.1-.28,4.66a19.38,19.38,0,0,0-2.42-.74,13.64,13.64,0,0,1,.61,4.47,14.32,14.32,0,0,1-.82,4.36,4,4,0,0,1,2,1.51c.05.08.11.14.17.22,0,2.09-.08,4.18,0,6.26.09,5.78,1.54,11.4,6.91,13.23a45,45,0,0,0,10.08,2C113.25,113.78,105.42,106.48,106.38,88.89Z"/><g class="cls-38"><path class="cls-39" d="M124.12,202.13l-4.68,5.09h1.77l-5.62-6c-1.1-1.18-2.87.59-1.77,1.77l5.62,6a1.27,1.27,0,0,0,1.77,0l4.67-5.1c1.09-1.18-.67-2.95-1.76-1.76Z"/></g><g class="cls-38"><path class="cls-39" d="M71.43,211.81l-4.68,5.09h1.77l-5.62-6c-1.1-1.18-2.86.59-1.77,1.76l5.62,6a1.26,1.26,0,0,0,1.77,0l4.68-5.09c1.08-1.19-.68-3-1.77-1.77Z"/></g><g class="cls-38"><path class="cls-39" d="M70.33,197l3.86,11.1c.28.79,1.46,1.35,2.09.55l5.47-6.92c1-1.25-.77-3-1.77-1.77l-5.47,6.93,2.09.55-3.86-11.11c-.52-1.51-2.94-.86-2.41.67Z"/></g><g class="cls-38"><path class="cls-39" d="M53.14,195.85,57,207c.28.79,1.46,1.35,2.09.55l5.47-6.93c1-1.24-.78-3-1.77-1.76l-5.47,6.92,2.09.55-3.86-11.1c-.53-1.51-2.94-.86-2.41.66Z"/></g><g class="cls-38"><path class="cls-39" d="M103.54,211l3.86,11.1c.27.79,1.46,1.35,2.09.55l5.46-6.92c1-1.25-.77-3-1.77-1.77l-5.46,6.93,2.09.55L106,210.35c-.53-1.51-2.94-.86-2.41.67Z"/></g><g class="cls-38"><path class="cls-39" d="M82.51,209.54l3.86,11.11c.27.79,1.46,1.35,2.09.55l5.46-6.93c1-1.24-.77-3-1.77-1.76l-5.46,6.92,2.09.55-3.86-11.1c-.53-1.51-2.94-.86-2.41.66Z"/></g><g class="cls-38"><path class="cls-39" d="M100.66,200.61l-4.87,5.28,1.51-.2a11.67,11.67,0,0,1-4.66-5.05c-.72-1.44-2.87-.17-2.16,1.27A14,14,0,0,0,96,207.85a1.27,1.27,0,0,0,1.52-.2l4.87-5.27c1.09-1.18-.67-2.95-1.77-1.77Z"/></g><path class="cls-40" d="M119.65,10C119.5,5,115.08-.66,108.37.71c-5,1.68-9.21,5.15-9.31,10.79a12.78,12.78,0,0,0,3.77,9.14,2.84,2.84,0,0,0-.1.44l-.78,7.5c-.24,2.32-.24,3.62-.53,5.93,0,.36,7.88,1.17,7.92.89l2-12.32h0C116.46,21.66,119.8,14.86,119.65,10Z"/><path class="cls-11" d="M109.7,4.53a5.86,5.86,0,0,0-6.13,4,6.84,6.84,0,0,0,1.39,7,6.22,6.22,0,0,0,6.22,1.91c1.95-.63,3.15-2.39,4-4.1.77-1.56,1.38-3.34.77-5a5.47,5.47,0,0,0-2.65-2.7A18.72,18.72,0,0,0,109.7,4.53Z"/><path class="cls-25" d="M102.35,16.94l12.91-9.78"/><path class="cls-25" d="M103.61,19.1l12.92-9.78c2.53-1.91,0-6.26-2.53-4.31l-12.91,9.77c-2.53,1.92,0,6.27,2.52,4.32Z"/><g class="cls-9"><path class="cls-4" d="M108,20.47l-2.86-1.15a10.7,10.7,0,0,1-5.93-5.58,12.77,12.77,0,0,0,3.58,6.9s0,.07,0,.1C107.35,21.25,108,20.47,108,20.47Z"/></g><g class="cls-6"><path class="cls-4" d="M109.34,35.4l2-12.32a2.81,2.81,0,0,0-.68.06,4.15,4.15,0,0,0-3.09,4.74l1.25,7.88C109.13,35.59,109.33,35.46,109.34,35.4Z"/></g><g class="cls-41"><path class="cls-42" d="M109.67,5.59a4.26,4.26,0,0,0-5,3.05.75.75,0,0,0,1.44.4,2.72,2.72,0,0,1,3.21-2c.94.19,1.34-1.25.4-1.44Z"/></g><path class="cls-43" d="M118.37,40.81a8.63,8.63,0,0,0-12.85-3.54A12.34,12.34,0,0,0,93,36.59c-2.3,1.16-.28,4.61,2,3.45a8.24,8.24,0,0,1,9.17,1.17,2,2,0,0,0,2.83,0c2.69-2.68,6.44-1.71,7.94,1.62C116,45.18,119.41,43.15,118.37,40.81Z"/><path class="cls-44" d="M105.52,37.27a9,9,0,0,1,6.4-1.44l.16-.56a3.28,3.28,0,0,0-2.69-4.55L102.55,30a4,4,0,0,0-4.37,4l.13,1.15A12.27,12.27,0,0,1,105.52,37.27Z"/><path class="cls-45" d="M65.83,81.45c-2.08-.35-4,1.3-4.52,3.92-.72,3.52-1.29,8.33,0,11.47,2.24,5.47,5.85,5.85,6.4,3.73s2.13-8.89,2-13.68l-.1-4.78Z"/><path class="cls-45" d="M118.75,83.57c-2.08-.36-4,1.3-4.53,3.92-.71,3.52-1.28,8.33,0,11.47,2.23,5.47,5.84,5.85,6.4,3.73s2.13-8.89,2-13.68l-.1-4.78Z"/><path class="cls-1" d="M71.05,92.51l4.38.7a.67.67,0,0,0,.78-.69c-.45-13.41-8.49-12.59-10.89-7.79-2.47,5-5.51,14.26.76,17.71a6.8,6.8,0,0,0,1.8.67,1.78,1.78,0,0,0,2.12-1.7l.28-8.26A.66.66,0,0,1,71.05,92.51Z"/><path class="cls-1" d="M123.84,93.56l4.38.7a.68.68,0,0,0,.78-.69c-.45-13.42-8.49-12.59-10.89-7.8-2.47,5-5.51,14.27.75,17.72a6.87,6.87,0,0,0,1.81.67,1.77,1.77,0,0,0,2.11-1.7l.28-8.27A.67.67,0,0,1,123.84,93.56Z"/><path class="cls-45" d="M89.8,104.07a2.77,2.77,0,0,0-1.9,3c.26,1.8.86,4.15,2.23,5.22,2.37,1.87,4.57,1,4.48-.08a23.89,23.89,0,0,0-1.45-6.79l-1-2.15Z"/><path class="cls-1" d="M95.7,104.64l-2.53,5.58-2.74-5.43c-.25-.49.17-1,.8-1l3.79,0A.64.64,0,0,1,95.7,104.64Z"/><path class="cls-2" d="M94,103.64l-2.53,5.58h3.42l-1.37-2.72-.89-1.77c-.11-.22-.21-.45-.33-.65s-.1-.43,0-.11v1l.06-.28-.51.88c-.5.65-.77,0-.4.12a1.34,1.34,0,0,0,.4,0h2.5c.16,0,.84.08.52,0l-.88-.51.07.07-.2-1.53,0,.31a2.06,2.06,0,0,0,1.39,2.44,2,2,0,0,0,2.44-1.39,2.68,2.68,0,0,0-2.08-3.3,11.46,11.46,0,0,0-2-.08c-1.86,0-4.24-.32-5,1.89-.48,1.41.63,2.95,1.24,4.16l1.71,3.38a2,2,0,0,0,3.42,0l2.54-5.58a2.05,2.05,0,0,0-.71-2.71A2,2,0,0,0,94,103.64Z"/></g></g></svg>