<?xml version="1.0" standalone="no"?>
<!DOCTYPE svg PUBLIC "-//W3C//DTD SVG 20010904//EN"
 "http://www.w3.org/TR/2001/REC-SVG-20010904/DTD/svg10.dtd">
<svg version="1.0" xmlns="http://www.w3.org/2000/svg"
 width="1025.000000pt" height="1025.000000pt" viewBox="0 0 1025.000000 1025.000000"
 preserveAspectRatio="xMidYMid meet">
<metadata>
Created by potrace 1.11, written by Peter Selinger 2001-2013
</metadata>
<g transform="translate(0.000000,1025.000000) scale(0.100000,-0.100000)"
fill="#000000" stroke="none">
<path d="M4838 9955 c-2 -2 -43 -6 -93 -10 -49 -3 -101 -8 -115 -10 -14 -2
-56 -6 -93 -10 -37 -3 -76 -8 -87 -10 -10 -2 -40 -7 -67 -11 -26 -3 -57 -8
-68 -10 -11 -2 -33 -7 -50 -9 -184 -32 -487 -109 -673 -171 -716 -241 -1344
-628 -1872 -1154 -178 -177 -218 -220 -361 -395 -112 -137 -290 -386 -347
-487 -11 -18 -37 -62 -59 -98 -66 -109 -243 -447 -243 -465 0 -2 -11 -28 -24
-57 -106 -231 -248 -668 -290 -888 -2 -14 -11 -59 -20 -100 -8 -41 -18 -91
-21 -110 -3 -19 -10 -60 -15 -90 -11 -70 -19 -130 -26 -200 -3 -30 -7 -66 -10
-80 -24 -144 -23 -762 1 -925 2 -16 7 -57 10 -90 6 -65 15 -138 21 -170 3 -11
7 -38 9 -60 3 -22 12 -71 20 -110 8 -38 16 -82 19 -97 23 -131 135 -537 175
-633 5 -11 15 -38 24 -60 87 -229 209 -497 292 -640 19 -33 38 -67 41 -75 16
-35 103 -175 190 -305 79 -118 280 -388 302 -405 4 -3 36 -39 72 -80 98 -114
321 -343 400 -410 14 -12 52 -45 84 -73 33 -29 69 -59 80 -67 12 -8 30 -23 41
-33 31 -29 231 -177 315 -234 176 -118 399 -253 419 -253 5 0 19 -8 32 -18 38
-29 332 -165 484 -225 203 -80 519 -181 625 -200 14 -3 52 -12 85 -20 33 -9
74 -18 90 -21 17 -3 41 -8 55 -11 43 -8 82 -15 185 -30 55 -9 111 -17 125 -20
14 -2 57 -7 95 -10 39 -4 81 -8 95 -10 148 -21 743 -21 858 0 10 1 49 6 87 9
39 4 81 9 95 11 14 2 61 9 104 15 44 7 91 13 105 15 57 8 323 66 426 94 475
127 906 314 1315 570 530 331 1031 801 1376 1291 60 87 184 272 184 277 0 2
16 29 35 59 19 30 35 57 35 59 0 3 11 22 23 43 50 78 167 315 236 476 157 367
295 858 337 1196 2 19 6 45 9 57 3 12 8 53 11 90 3 37 7 82 9 98 24 182 24
749 0 930 -2 17 -6 53 -9 80 -10 85 -17 136 -37 255 -57 344 -146 660 -281
1000 -44 111 -218 476 -265 555 -10 17 -33 57 -52 90 -114 198 -341 517 -491
689 -107 124 -337 359 -450 461 -564 509 -1284 894 -2025 1084 -245 62 -513
109 -725 127 -36 3 -78 7 -95 10 -32 6 -661 14 -667 9z"/>
</g>
</svg>
