<svg width="306" height="307" viewBox="0 0 306 307" fill="none" xmlns="http://www.w3.org/2000/svg">
<path d="M159.86 208.051L168.86 190.651C169.48 189.458 169.782 188.124 169.737 186.78C169.693 185.435 169.302 184.125 168.604 182.976C167.905 181.826 166.923 180.876 165.75 180.216C164.578 179.557 163.255 179.211 161.91 179.211H143.91C142.565 179.211 141.242 179.557 140.07 180.216C138.897 180.876 137.915 181.826 137.216 182.976C136.518 184.125 136.127 185.435 136.082 186.78C136.038 188.124 136.34 189.458 136.96 190.651L145.96 208.051C146.621 209.324 147.618 210.391 148.844 211.136C150.069 211.881 151.476 212.275 152.91 212.275C154.344 212.275 155.751 211.881 156.976 211.136C158.202 210.391 159.199 209.324 159.86 208.051Z" fill="#1D1D1B"/>
<path d="M90.9999 149.361H101.78C102.826 149.368 103.862 149.146 104.813 148.711C105.765 148.275 106.609 147.637 107.288 146.84C107.967 146.044 108.462 145.108 108.741 144.099C109.019 143.091 109.074 142.033 108.9 141.001C106 125.441 96.16 114.001 84.3999 114.001C70.3999 114.001 59.0699 130.191 59.0699 150.151C59.0699 163.941 64.4699 175.921 72.4299 182.011C73.4966 182.806 74.7638 183.289 76.0894 183.404C77.4149 183.52 78.7464 183.263 79.9344 182.664C81.1224 182.065 82.1199 181.146 82.8151 180.012C83.5103 178.877 83.8755 177.572 83.8699 176.241V156.531C83.8699 154.636 84.6198 152.819 85.9558 151.475C87.2918 150.132 89.1053 149.372 90.9999 149.361Z" fill="#1D1D1B"/>
<path d="M227 149.361H237.78C238.826 149.368 239.862 149.146 240.813 148.711C241.765 148.275 242.61 147.637 243.288 146.84C243.967 146.044 244.463 145.108 244.741 144.099C245.019 143.091 245.074 142.033 244.9 141.001C242 125.441 232.16 114.001 220.4 114.001C206.4 114.001 195.07 130.191 195.07 150.151C195.07 163.941 200.47 175.921 208.43 182.011C209.497 182.806 210.764 183.289 212.089 183.404C213.415 183.52 214.747 183.263 215.935 182.664C217.123 182.065 218.12 181.146 218.815 180.012C219.51 178.877 219.876 177.572 219.87 176.241V156.531C219.87 154.636 220.62 152.819 221.956 151.475C223.292 150.132 225.105 149.372 227 149.361Z" fill="#1D1D1B"/>
<path d="M267.61 52.7011C247.616 29.5924 221.138 13.0256 191.613 5.15006C162.087 -2.72547 130.877 -1.54624 102.03 8.53476C73.1825 18.6158 48.0307 37.1332 29.8373 61.6848C11.6439 86.2364 1.24855 115.689 0 146.221C0.07 146.011 0.15 145.811 0.22 145.601C0.08 148.321 0 151.051 0 153.801C0 249.401 87.73 324.511 187.07 303.001C215.33 296.839 241.217 282.669 261.637 262.185C282.057 241.701 296.146 215.77 302.22 187.491C313.25 135.801 298.13 87.3011 267.61 52.7011ZM250.61 249.701C245.688 254.712 240.393 259.342 234.77 263.551C213.77 273.281 198.18 269.711 190.32 266.411C179.101 259.878 166.381 256.364 153.4 256.211C140.418 256.059 127.619 259.273 116.25 265.541H116.19C107.8 269.081 90.43 273.021 67.11 260.451C65.51 259.158 63.9367 257.824 62.39 256.451C43.0801 239.388 28.9632 217.233 21.6541 192.523C14.3451 167.812 14.1392 141.543 21.06 116.721C25.1186 101.969 34.2738 89.1326 46.9 80.4911L47.1 80.3611C59.91 71.7111 75 65.6511 90.44 66.1111C104.57 66.5211 117.68 72.2811 129.21 80.6811C135.71 85.3568 143.44 88.0192 151.441 88.3375C159.442 88.6557 167.359 86.6158 174.21 82.4711C188.94 73.6411 204.72 67.2311 221.68 67.4711C225.175 67.5226 228.659 67.857 232.1 68.4711C257.92 72.9911 278.29 92.7111 285.1 118.021C291.318 141.089 291.406 165.381 285.356 188.494C279.305 211.607 267.324 232.739 250.6 249.801L250.61 249.701Z" fill="#1D1D1B"/>
</svg>
